<mxfile host="Electron" agent="Mozilla/5.0 (Windows NT 10.0; Win64; x64) AppleWebKit/537.36 (KHTML, like Gecko) draw.io/25.0.2 Chrome/128.0.6613.186 Electron/32.2.5 Safari/537.36" version="25.0.2">
  <diagram name="PÃ¡gina-1" id="v93OToGNnm_jCtho4Ft6">
    <mxGraphModel dx="9669" dy="6580" grid="1" gridSize="10" guides="1" tooltips="1" connect="1" arrows="1" fold="1" page="1" pageScale="1" pageWidth="4681" pageHeight="3300" background="none" math="0" shadow="0">
      <root>
        <mxCell id="0" />
        <mxCell id="1" parent="0" />
        <mxCell id="gWoKqz0lpScKam20XCxX-42" value="" style="group;rounded=0;" vertex="1" connectable="0" parent="1">
          <mxGeometry x="-4330" y="-3040" width="8630" height="5260" as="geometry" />
        </mxCell>
        <mxCell id="gWoKqz0lpScKam20XCxX-32" style="edgeStyle=orthogonalEdgeStyle;rounded=0;orthogonalLoop=1;jettySize=auto;html=1;exitX=0;exitY=0;exitDx=500;exitDy=0;exitPerimeter=0;strokeWidth=10;" edge="1" parent="gWoKqz0lpScKam20XCxX-42" source="gWoKqz0lpScKam20XCxX-27" target="gWoKqz0lpScKam20XCxX-13">
          <mxGeometry relative="1" as="geometry" />
        </mxCell>
        <mxCell id="gWoKqz0lpScKam20XCxX-6" value="&lt;h1&gt;&lt;br&gt;&lt;/h1&gt;&lt;h1&gt;&lt;b&gt;&lt;font color=&quot;#ffa500&quot; style=&quot;font-size: 80px;&quot;&gt;&lt;br&gt;&lt;/font&gt;&lt;/b&gt;&lt;/h1&gt;&lt;h1&gt;&lt;b&gt;&lt;font color=&quot;#ffa500&quot; style=&quot;font-size: 80px;&quot;&gt;&lt;br&gt;&lt;/font&gt;&lt;/b&gt;&lt;/h1&gt;&lt;h1&gt;&lt;b&gt;&lt;font color=&quot;#ffa500&quot; style=&quot;font-size: 80px;&quot;&gt;&lt;br&gt;&lt;/font&gt;&lt;/b&gt;&lt;/h1&gt;&lt;h1&gt;&lt;b&gt;&lt;font color=&quot;#ffa500&quot; style=&quot;font-size: 80px;&quot;&gt;&lt;br&gt;&lt;/font&gt;&lt;/b&gt;&lt;/h1&gt;&lt;h1&gt;&lt;b style=&quot;background-color: initial; font-size: 12px;&quot;&gt;&lt;font color=&quot;#ffa500&quot; style=&quot;font-size: 80px;&quot;&gt;CUSTOMER&lt;/font&gt;&lt;/b&gt;&lt;br&gt;&lt;/h1&gt;" style="shape=actor;whiteSpace=wrap;html=1;strokeColor=#d79b00;fillColor=#fde9a5;gradientColor=#ffa500;rounded=0;" vertex="1" parent="gWoKqz0lpScKam20XCxX-42">
          <mxGeometry x="323.1497797356827" y="3487.861198738171" width="532.2466960352422" height="647.1293375394324" as="geometry" />
        </mxCell>
        <mxCell id="gWoKqz0lpScKam20XCxX-31" style="edgeStyle=orthogonalEdgeStyle;rounded=0;orthogonalLoop=1;jettySize=auto;html=1;strokeWidth=10;" edge="1" parent="gWoKqz0lpScKam20XCxX-42" source="gWoKqz0lpScKam20XCxX-8" target="gWoKqz0lpScKam20XCxX-13">
          <mxGeometry relative="1" as="geometry" />
        </mxCell>
        <mxCell id="gWoKqz0lpScKam20XCxX-8" value="&lt;h1&gt;&lt;font color=&quot;#527040&quot; face=&quot;Verdana&quot; style=&quot;font-size: 80px;&quot;&gt;&lt;b style=&quot;&quot;&gt;ECO UNIT&lt;/b&gt;&lt;/font&gt;&lt;/h1&gt;" style="verticalAlign=top;align=center;spacingTop=8;spacingLeft=2;spacingRight=12;shape=cube;size=130;direction=south;fontStyle=4;html=1;whiteSpace=wrap;strokeColor=#6D9656;fillColor=#d5e8d4;strokeWidth=13;rounded=0;" vertex="1" parent="gWoKqz0lpScKam20XCxX-42">
          <mxGeometry x="-95.67627494456762" y="66.57713253204489" width="3440.5947136563877" height="3268.8328075709787" as="geometry" />
        </mxCell>
        <mxCell id="gWoKqz0lpScKam20XCxX-12" value="&lt;h1&gt;&lt;br&gt;&lt;/h1&gt;&lt;h1&gt;&lt;b&gt;&lt;font color=&quot;#d8d8e9&quot; style=&quot;font-size: 80px;&quot;&gt;&lt;br&gt;&lt;/font&gt;&lt;/b&gt;&lt;/h1&gt;&lt;h1&gt;&lt;b&gt;&lt;font color=&quot;#d8d8e9&quot; style=&quot;font-size: 80px;&quot;&gt;&lt;br&gt;&lt;/font&gt;&lt;/b&gt;&lt;/h1&gt;&lt;h1&gt;&lt;b&gt;&lt;font color=&quot;#d8d8e9&quot; style=&quot;font-size: 80px;&quot;&gt;&lt;br&gt;&lt;/font&gt;&lt;/b&gt;&lt;/h1&gt;&lt;h1&gt;&lt;b style=&quot;background-color: initial; font-size: 12px;&quot;&gt;&lt;font color=&quot;#d8d8e9&quot; style=&quot;font-size: 80px;&quot;&gt;&lt;br&gt;&lt;/font&gt;&lt;/b&gt;&lt;/h1&gt;&lt;h1&gt;&lt;span style=&quot;font-size: 80px;&quot;&gt;&lt;font color=&quot;#2e17ff&quot;&gt;BACKOFFICE&lt;/font&gt;&lt;/span&gt;&lt;/h1&gt;" style="shape=actor;whiteSpace=wrap;html=1;strokeColor=#6c8ebf;fillColor=#dae8fc;gradientColor=#2E17FF;rounded=0;" vertex="1" parent="gWoKqz0lpScKam20XCxX-42">
          <mxGeometry x="323.1497797356827" y="4410.435331230285" width="532.2466960352422" height="647.1293375394324" as="geometry" />
        </mxCell>
        <mxCell id="gWoKqz0lpScKam20XCxX-41" style="edgeStyle=orthogonalEdgeStyle;rounded=0;orthogonalLoop=1;jettySize=auto;html=1;strokeWidth=15;" edge="1" parent="gWoKqz0lpScKam20XCxX-42" source="gWoKqz0lpScKam20XCxX-13" target="gWoKqz0lpScKam20XCxX-40">
          <mxGeometry relative="1" as="geometry" />
        </mxCell>
        <mxCell id="gWoKqz0lpScKam20XCxX-13" value="&lt;h1&gt;&lt;font face=&quot;Verdana&quot; color=&quot;#2e17ff&quot;&gt;&lt;span style=&quot;font-size: 80px;&quot;&gt;BACKEND&lt;/span&gt;&lt;/font&gt;&lt;/h1&gt;&lt;div&gt;&lt;font face=&quot;Verdana&quot; color=&quot;#2e17ff&quot;&gt;&lt;span style=&quot;font-size: 80px;&quot;&gt;&lt;br&gt;&lt;/span&gt;&lt;/font&gt;&lt;/div&gt;" style="verticalAlign=top;align=center;spacingTop=8;spacingLeft=2;spacingRight=12;shape=cube;size=130;direction=south;fontStyle=4;html=1;whiteSpace=wrap;strokeColor=#2E17FF;fillColor=#cce5ff;strokeWidth=13;rounded=0;" vertex="1" parent="gWoKqz0lpScKam20XCxX-42">
          <mxGeometry x="3701.3048076228056" y="16.645569620253163" width="3820.770925110131" height="5260.000000000001" as="geometry" />
        </mxCell>
        <mxCell id="gWoKqz0lpScKam20XCxX-24" value="&lt;b style=&quot;color: rgb(255, 255, 255); font-size: 30px;&quot;&gt;PURE PYTHON API&lt;/b&gt;" style="shape=umlFrame;whiteSpace=wrap;html=1;pointerEvents=0;strokeWidth=10;strokeColor=#2E17FF;dashed=1;align=center;width=299;height=60;rounded=0;" vertex="1" parent="gWoKqz0lpScKam20XCxX-42">
          <mxGeometry x="3820.7746341463417" y="1348.2911392405063" width="3364.551884700665" height="3861.772151898734" as="geometry" />
        </mxCell>
        <mxCell id="gWoKqz0lpScKam20XCxX-29" style="edgeStyle=orthogonalEdgeStyle;rounded=0;orthogonalLoop=1;jettySize=auto;html=1;entryX=0.719;entryY=0.993;entryDx=0;entryDy=0;entryPerimeter=0;strokeWidth=10;" edge="1" parent="gWoKqz0lpScKam20XCxX-42" source="gWoKqz0lpScKam20XCxX-12" target="gWoKqz0lpScKam20XCxX-27">
          <mxGeometry relative="1" as="geometry" />
        </mxCell>
        <mxCell id="gWoKqz0lpScKam20XCxX-30" style="edgeStyle=orthogonalEdgeStyle;rounded=0;orthogonalLoop=1;jettySize=auto;html=1;entryX=0.227;entryY=1;entryDx=0;entryDy=0;entryPerimeter=0;strokeWidth=10;" edge="1" parent="gWoKqz0lpScKam20XCxX-42" source="gWoKqz0lpScKam20XCxX-6" target="gWoKqz0lpScKam20XCxX-27">
          <mxGeometry relative="1" as="geometry" />
        </mxCell>
        <mxCell id="gWoKqz0lpScKam20XCxX-34" value="" style="group;rounded=0;" vertex="1" connectable="0" parent="gWoKqz0lpScKam20XCxX-42">
          <mxGeometry x="1577.731277533039" y="3384.9842271293383" width="1824.8458149779733" height="1875.0157728706629" as="geometry" />
        </mxCell>
        <mxCell id="gWoKqz0lpScKam20XCxX-27" value="&lt;h1&gt;&lt;font color=&quot;#9673a6&quot; face=&quot;Verdana&quot; style=&quot;font-size: 80px;&quot;&gt;&lt;b style=&quot;&quot;&gt;UX&lt;/b&gt;&lt;/font&gt;&lt;/h1&gt;" style="verticalAlign=top;align=center;spacingTop=8;spacingLeft=2;spacingRight=12;shape=cube;size=130;direction=south;fontStyle=4;html=1;whiteSpace=wrap;strokeColor=#9673a6;fillColor=#e1d5e7;strokeWidth=13;rounded=0;" vertex="1" parent="gWoKqz0lpScKam20XCxX-34">
          <mxGeometry x="-60.31432372505544" width="1824.8458149779733" height="1875.0157728706629" as="geometry" />
        </mxCell>
        <mxCell id="gWoKqz0lpScKam20XCxX-63" value="" style="group;rounded=0;" vertex="1" connectable="0" parent="gWoKqz0lpScKam20XCxX-34">
          <mxGeometry x="38.270509977827054" y="293.69443037974685" width="1473.4146341463415" height="688.3941772151899" as="geometry" />
        </mxCell>
        <mxCell id="gWoKqz0lpScKam20XCxX-17" value="&lt;span style=&quot;color: rgba(0, 0, 0, 0); font-family: monospace; font-size: 0px; text-align: start;&quot;&gt;%3CmxGraphModel%3E%3Croot%3E%3CmxCell%20id%3D%220%22%2F%3E%3CmxCell%20id%3D%221%22%20parent%3D%220%22%2F%3E%3CmxCell%20id%3D%222%22%20value%3D%22%22%20style%3D%22group%22%20vertex%3D%221%22%20connectable%3D%220%22%20parent%3D%221%22%3E%3CmxGeometry%20x%3D%2290%22%20y%3D%2260%22%20width%3D%224510%22%20height%3D%223160%22%20as%3D%22geometry%22%2F%3E%3C%2FmxCell%3E%3CmxCell%20id%3D%223%22%20style%3D%22edgeStyle%3DorthogonalEdgeStyle%3Brounded%3D0%3BorthogonalLoop%3D1%3BjettySize%3Dauto%3Bhtml%3D1%3BexitX%3D0%3BexitY%3D0%3BexitDx%3D500%3BexitDy%3D0%3BexitPerimeter%3D0%3BstrokeWidth%3D10%3B%22%20edge%3D%221%22%20parent%3D%222%22%20source%3D%2214%22%20target%3D%229%22%3E%3CmxGeometry%20relative%3D%221%22%20as%3D%22geometry%22%2F%3E%3C%2FmxCell%3E%3CmxCell%20id%3D%224%22%20value%3D%22%26lt%3Bh1%26gt%3B%26lt%3Bbr%26gt%3B%26lt%3B%2Fh1%26gt%3B%26lt%3Bh1%26gt%3B%26lt%3Bb%26gt%3B%26lt%3Bfont%20color%3D%26quot%3B%23ffa500%26quot%3B%20style%3D%26quot%3Bfont-size%3A%2080px%3B%26quot%3B%26gt%3B%26lt%3Bbr%26gt%3B%26lt%3B%2Ffont%26gt%3B%26lt%3B%2Fb%26gt%3B%26lt%3B%2Fh1%26gt%3B%26lt%3Bh1%26gt%3B%26lt%3Bb%26gt%3B%26lt%3Bfont%20color%3D%26quot%3B%23ffa500%26quot%3B%20style%3D%26quot%3Bfont-size%3A%2080px%3B%26quot%3B%26gt%3B%26lt%3Bbr%26gt%3B%26lt%3B%2Ffont%26gt%3B%26lt%3B%2Fb%26gt%3B%26lt%3B%2Fh1%26gt%3B%26lt%3Bh1%26gt%3B%26lt%3Bb%26gt%3B%26lt%3Bfont%20color%3D%26quot%3B%23ffa500%26quot%3B%20style%3D%26quot%3Bfont-size%3A%2080px%3B%26quot%3B%26gt%3B%26lt%3Bbr%26gt%3B%26lt%3B%2Ffont%26gt%3B%26lt%3B%2Fb%26gt%3B%26lt%3B%2Fh1%26gt%3B%26lt%3Bh1%26gt%3B%26lt%3Bb%26gt%3B%26lt%3Bfont%20color%3D%26quot%3B%23ffa500%26quot%3B%20style%3D%26quot%3Bfont-size%3A%2080px%3B%26quot%3B%26gt%3B%26lt%3Bbr%26gt%3B%26lt%3B%2Ffont%26gt%3B%26lt%3B%2Fb%26gt%3B%26lt%3B%2Fh1%26gt%3B%26lt%3Bh1%26gt%3B%26lt%3Bb%20style%3D%26quot%3Bbackground-color%3A%20initial%3B%20font-size%3A%2012px%3B%26quot%3B%26gt%3B%26lt%3Bfont%20color%3D%26quot%3B%23ffa500%26quot%3B%20style%3D%26quot%3Bfont-size%3A%2080px%3B%26quot%3B%26gt%3BCUSTOMER%26lt%3B%2Ffont%26gt%3B%26lt%3B%2Fb%26gt%3B%26lt%3Bbr%26gt%3B%26lt%3B%2Fh1%26gt%3B%22%20style%3D%22shape%3Dactor%3BwhiteSpace%3Dwrap%3Bhtml%3D1%3BstrokeColor%3D%23d79b00%3BfillColor%3D%23fde9a5%3BgradientColor%3D%23ffa500%3B%22%20vertex%3D%221%22%20parent%3D%222%22%3E%3CmxGeometry%20x%3D%22168.8766519823788%22%20y%3D%222095.369085173502%22%20width%3D%22278.1497797356827%22%20height%3D%22388.7697160883282%22%20as%3D%22geometry%22%2F%3E%3C%2FmxCell%3E%3CmxCell%20id%3D%225%22%20style%3D%22edgeStyle%3DorthogonalEdgeStyle%3Brounded%3D0%3BorthogonalLoop%3D1%3BjettySize%3Dauto%3Bhtml%3D1%3BstrokeWidth%3D10%3B%22%20edge%3D%221%22%20parent%3D%222%22%20source%3D%226%22%20target%3D%229%22%3E%3CmxGeometry%20relative%3D%221%22%20as%3D%22geometry%22%2F%3E%3C%2FmxCell%3E%3CmxCell%20id%3D%226%22%20value%3D%22%26lt%3Bh1%26gt%3B%26lt%3Bfont%20color%3D%26quot%3B%23527040%26quot%3B%20face%3D%26quot%3BVerdana%26quot%3B%20style%3D%26quot%3Bfont-size%3A%2080px%3B%26quot%3B%26gt%3B%26lt%3Bb%20style%3D%26quot%3B%26quot%3B%26gt%3BECO%20UNIT%26lt%3B%2Fb%26gt%3B%26lt%3B%2Ffont%26gt%3B%26lt%3B%2Fh1%26gt%3B%22%20style%3D%22verticalAlign%3Dtop%3Balign%3Dcenter%3BspacingTop%3D8%3BspacingLeft%3D2%3BspacingRight%3D12%3Bshape%3Dcube%3Bsize%3D130%3Bdirection%3Dsouth%3BfontStyle%3D4%3Bhtml%3D1%3BwhiteSpace%3Dwrap%3BstrokeColor%3D%236D9656%3BfillColor%3D%23d5e8d4%3BstrokeWidth%3D13%3B%22%20vertex%3D%221%22%20parent%3D%222%22%3E%3CmxGeometry%20y%3D%2219.936908517350158%22%20width%3D%221798.0396475770924%22%20height%3D%221963.785488958991%22%20as%3D%22geometry%22%2F%3E%3C%2FmxCell%3E%3CmxCell%20id%3D%227%22%20value%3D%22%26lt%3Bh1%26gt%3B%26lt%3Bbr%26gt%3B%26lt%3B%2Fh1%26gt%3B%26lt%3Bh1%26gt%3B%26lt%3Bb%26gt%3B%26lt%3Bfont%20color%3D%26quot%3B%23d8d8e9%26quot%3B%20style%3D%26quot%3Bfont-size%3A%2080px%3B%26quot%3B%26gt%3B%26lt%3Bbr%26gt%3B%26lt%3B%2Ffont%26gt%3B%26lt%3B%2Fb%26gt%3B%26lt%3B%2Fh1%26gt%3B%26lt%3Bh1%26gt%3B%26lt%3Bb%26gt%3B%26lt%3Bfont%20color%3D%26quot%3B%23d8d8e9%26quot%3B%20style%3D%26quot%3Bfont-size%3A%2080px%3B%26quot%3B%26gt%3B%26lt%3Bbr%26gt%3B%26lt%3B%2Ffont%26gt%3B%26lt%3B%2Fb%26gt%3B%26lt%3B%2Fh1%26gt%3B%26lt%3Bh1%26gt%3B%26lt%3Bb%26gt%3B%26lt%3Bfont%20color%3D%26quot%3B%23d8d8e9%26quot%3B%20style%3D%26quot%3Bfont-size%3A%2080px%3B%26quot%3B%26gt%3B%26lt%3Bbr%26gt%3B%26lt%3B%2Ffont%26gt%3B%26lt%3B%2Fb%26gt%3B%26lt%3B%2Fh1%26gt%3B%26lt%3Bh1%26gt%3B%26lt%3Bb%20style%3D%26quot%3Bbackground-color%3A%20initial%3B%20font-size%3A%2012px%3B%26quot%3B%26gt%3B%26lt%3Bfont%20color%3D%26quot%3B%23d8d8e9%26quot%3B%20style%3D%26quot%3Bfont-size%3A%2080px%3B%26quot%3B%26gt%3B%26lt%3Bbr%26gt%3B%26lt%3B%2Ffont%26gt%3B%26lt%3B%2Fb%26gt%3B%26lt%3B%2Fh1%26gt%3B%26lt%3Bh1%26gt%3B%26lt%3Bspan%20style%3D%26quot%3Bfont-size%3A%2080px%3B%26quot%3B%26gt%3B%26lt%3Bfont%20color%3D%26quot%3B%232e17ff%26quot%3B%26gt%3BBACKOFFICE%26lt%3B%2Ffont%26gt%3B%26lt%3B%2Fspan%26gt%3B%26lt%3B%2Fh1%26gt%3B%22%20style%3D%22shape%3Dactor%3BwhiteSpace%3Dwrap%3Bhtml%3D1%3BstrokeColor%3D%236c8ebf%3BfillColor%3D%23dae8fc%3BgradientColor%3D%232E17FF%3B%22%20vertex%3D%221%22%20parent%3D%222%22%3E%3CmxGeometry%20x%3D%22168.8766519823788%22%20y%3D%222649.6151419558364%22%20width%3D%22278.1497797356827%22%20height%3D%22388.7697160883282%22%20as%3D%22geometry%22%2F%3E%3C%2FmxCell%3E%3CmxCell%20id%3D%228%22%20style%3D%22edgeStyle%3DorthogonalEdgeStyle%3Brounded%3D0%3BorthogonalLoop%3D1%3BjettySize%3Dauto%3Bhtml%3D1%3BstrokeWidth%3D15%3B%22%20edge%3D%221%22%20parent%3D%222%22%20source%3D%229%22%20target%3D%2216%22%3E%3CmxGeometry%20relative%3D%221%22%20as%3D%22geometry%22%2F%3E%3C%2FmxCell%3E%3CmxCell%20id%3D%229%22%20value%3D%22%26lt%3Bh1%26gt%3B%26lt%3Bfont%20face%3D%26quot%3BVerdana%26quot%3B%20color%3D%26quot%3B%232e17ff%26quot%3B%26gt%3B%26lt%3Bspan%20style%3D%26quot%3Bfont-size%3A%2080px%3B%26quot%3B%26gt%3BBACKEND%26lt%3B%2Fspan%26gt%3B%26lt%3B%2Ffont%26gt%3B%26lt%3B%2Fh1%26gt%3B%26lt%3Bdiv%26gt%3B%26lt%3Bfont%20face%3D%26quot%3BVerdana%26quot%3B%20color%3D%26quot%3B%232e17ff%26quot%3B%26gt%3B%26lt%3Bspan%20style%3D%26quot%3Bfont-size%3A%2080px%3B%26quot%3B%26gt%3B%26lt%3Bbr%26gt%3B%26lt%3B%2Fspan%26gt%3B%26lt%3B%2Ffont%26gt%3B%26lt%3B%2Fdiv%26gt%3B%22%20style%3D%22verticalAlign%3Dtop%3Balign%3Dcenter%3BspacingTop%3D8%3BspacingLeft%3D2%3BspacingRight%3D12%3Bshape%3Dcube%3Bsize%3D130%3Bdirection%3Dsouth%3BfontStyle%3D4%3Bhtml%3D1%3BwhiteSpace%3Dwrap%3BstrokeColor%3D%232E17FF%3BfillColor%3D%23cce5ff%3BstrokeWidth%3D13%3B%22%20vertex%3D%221%22%20parent%3D%222%22%3E%3CmxGeometry%20x%3D%221954.9955947136561%22%20width%3D%221996.7180616740081%22%20height%3D%223160.0000000000005%22%20as%3D%22geometry%22%2F%3E%3C%2FmxCell%3E%3CmxCell%20id%3D%2210%22%20value%3D%22%26lt%3Bfont%20color%3D%26quot%3B%23ffffff%26quot%3B%20style%3D%26quot%3Bfont-size%3A%2030px%3B%26quot%3B%26gt%3B%26lt%3Bb%20style%3D%26quot%3B%26quot%3B%26gt%3BPURE%20PYTHON%20API%26lt%3B%2Fb%26gt%3B%26lt%3B%2Ffont%26gt%3B%22%20style%3D%22shape%3DumlFrame%3BwhiteSpace%3Dwrap%3Bhtml%3D1%3BpointerEvents%3D0%3BstrokeWidth%3D10%3BstrokeColor%3D%232E17FF%3Bdashed%3D1%3Balign%3Dcenter%3Bwidth%3D299%3Bheight%3D60%3B%22%20vertex%3D%221%22%20parent%3D%222%22%3E%3CmxGeometry%20x%3D%221996.7180616740081%22%20y%3D%22179.43217665615146%22%20width%3D%221758.303964757709%22%20height%3D%222920.757097791798%22%20as%3D%22geometry%22%2F%3E%3C%2FmxCell%3E%3CmxCell%20id%3D%2211%22%20style%3D%22edgeStyle%3DorthogonalEdgeStyle%3Brounded%3D0%3BorthogonalLoop%3D1%3BjettySize%3Dauto%3Bhtml%3D1%3BentryX%3D0.719%3BentryY%3D0.993%3BentryDx%3D0%3BentryDy%3D0%3BentryPerimeter%3D0%3BstrokeWidth%3D10%3B%22%20edge%3D%221%22%20parent%3D%222%22%20source%3D%227%22%20target%3D%2214%22%3E%3CmxGeometry%20relative%3D%221%22%20as%3D%22geometry%22%2F%3E%3C%2FmxCell%3E%3CmxCell%20id%3D%2212%22%20style%3D%22edgeStyle%3DorthogonalEdgeStyle%3Brounded%3D0%3BorthogonalLoop%3D1%3BjettySize%3Dauto%3Bhtml%3D1%3BentryX%3D0.227%3BentryY%3D1%3BentryDx%3D0%3BentryDy%3D0%3BentryPerimeter%3D0%3BstrokeWidth%3D10%3B%22%20edge%3D%221%22%20parent%3D%222%22%20source%3D%224%22%20target%3D%2214%22%3E%3CmxGeometry%20relative%3D%221%22%20as%3D%22geometry%22%2F%3E%3C%2FmxCell%3E%3CmxCell%20id%3D%2213%22%20value%3D%22%22%20style%3D%22group%22%20vertex%3D%221%22%20connectable%3D%220%22%20parent%3D%222%22%3E%3CmxGeometry%20x%3D%22824.5154185022024%22%20y%3D%222033.5646687697165%22%20width%3D%22953.656387665198%22%20height%3D%221126.4353312302842%22%20as%3D%22geometry%22%2F%3E%3C%2FmxCell%3E%3CmxCell%20id%3D%2214%22%20value%3D%22%26lt%3Bh1%26gt%3B%26lt%3Bfont%20color%3D%26quot%3B%239673a6%26quot%3B%20face%3D%26quot%3BVerdana%26quot%3B%20style%3D%26quot%3Bfont-size%3A%2080px%3B%26quot%3B%26gt%3B%26lt%3Bb%20style%3D%26quot%3B%26quot%3B%26gt%3BUX%26lt%3B%2Fb%26gt%3B%26lt%3B%2Ffont%26gt%3B%26lt%3B%2Fh1%26gt%3B%22%20style%3D%22verticalAlign%3Dtop%3Balign%3Dcenter%3BspacingTop%3D8%3BspacingLeft%3D2%3BspacingRight%3D12%3Bshape%3Dcube%3Bsize%3D130%3Bdirection%3Dsouth%3BfontStyle%3D4%3Bhtml%3D1%3BwhiteSpace%3Dwrap%3BstrokeColor%3D%239673a6%3BfillColor%3D%23e1d5e7%3BstrokeWidth%3D13%3B%22%20vertex%3D%221%22%20parent%3D%2213%22%3E%3CmxGeometry%20width%3D%22953.656387665198%22%20height%3D%221126.4353312302842%22%20as%3D%22geometry%22%2F%3E%3C%2FmxCell%3E%3CmxCell%20id%3D%2215%22%20value%3D%22%22%20style%3D%22verticalLabelPosition%3Dbottom%3Baspect%3Dfixed%3Bhtml%3D1%3Bshape%3Dmxgraph.salesforce.web%3B%22%20vertex%3D%221%22%20parent%3D%2213%22%3E%3CmxGeometry%20x%3D%2265.48000000000002%22%20y%3D%22166.44%22%20width%3D%22217.86%22%20height%3D%22172.11%22%20as%3D%22geometry%22%2F%3E%3C%2FmxCell%3E%3CmxCell%20id%3D%2216%22%20value%3D%22%26lt%3Bfont%20style%3D%26quot%3Bfont-size%3A%2090px%3B%26quot%3B%26gt%3BDATABASE%26lt%3B%2Ffont%26gt%3B%22%20style%3D%22image%3Bhtml%3D1%3Bimage%3Dimg%2Flib%2Fclip_art%2Fcomputers%2FDatabase_128x128.png%22%20vertex%3D%221%22%20parent%3D%222%22%3E%3CmxGeometry%20x%3D%224062.9735682819373%22%20y%3D%221176.2776025236594%22%20width%3D%22447.02643171806164%22%20height%3D%22807.4447949526816%22%20as%3D%22geometry%22%2F%3E%3C%2FmxCell%3E%3C%2Froot%3E%3C%2FmxGraphModel%3E&lt;/span&gt;" style="verticalLabelPosition=bottom;aspect=fixed;html=1;shape=mxgraph.salesforce.web;rounded=0;" vertex="1" parent="gWoKqz0lpScKam20XCxX-63">
          <mxGeometry x="87.02713968957875" y="205.52978973060695" width="362.64037974683544" height="286.48689873417726" as="geometry" />
        </mxCell>
        <mxCell id="gWoKqz0lpScKam20XCxX-61" value="&lt;font style=&quot;font-size: 30px;&quot;&gt;CUSTOMER SERVICES&lt;/font&gt;" style="shape=umlFrame;whiteSpace=wrap;html=1;pointerEvents=0;strokeWidth=10;strokeColor=#9673A6;dashed=1;align=center;width=445;height=56;rounded=0;" vertex="1" parent="gWoKqz0lpScKam20XCxX-63">
          <mxGeometry width="1473.4146341463415" height="688.3941772151899" as="geometry" />
        </mxCell>
        <mxCell id="gWoKqz0lpScKam20XCxX-64" value="" style="group;rounded=0;" vertex="1" connectable="0" parent="gWoKqz0lpScKam20XCxX-34">
          <mxGeometry x="29.621374722838173" y="1042.7450632911393" width="1473.4146341463415" height="649.1772151898734" as="geometry" />
        </mxCell>
        <mxCell id="gWoKqz0lpScKam20XCxX-65" value="&lt;span style=&quot;color: rgba(0, 0, 0, 0); font-family: monospace; font-size: 0px; text-align: start;&quot;&gt;%3CmxGraphModel%3E%3Croot%3E%3CmxCell%20id%3D%220%22%2F%3E%3CmxCell%20id%3D%221%22%20parent%3D%220%22%2F%3E%3CmxCell%20id%3D%222%22%20value%3D%22%22%20style%3D%22group%22%20vertex%3D%221%22%20connectable%3D%220%22%20parent%3D%221%22%3E%3CmxGeometry%20x%3D%2290%22%20y%3D%2260%22%20width%3D%224510%22%20height%3D%223160%22%20as%3D%22geometry%22%2F%3E%3C%2FmxCell%3E%3CmxCell%20id%3D%223%22%20style%3D%22edgeStyle%3DorthogonalEdgeStyle%3Brounded%3D0%3BorthogonalLoop%3D1%3BjettySize%3Dauto%3Bhtml%3D1%3BexitX%3D0%3BexitY%3D0%3BexitDx%3D500%3BexitDy%3D0%3BexitPerimeter%3D0%3BstrokeWidth%3D10%3B%22%20edge%3D%221%22%20parent%3D%222%22%20source%3D%2214%22%20target%3D%229%22%3E%3CmxGeometry%20relative%3D%221%22%20as%3D%22geometry%22%2F%3E%3C%2FmxCell%3E%3CmxCell%20id%3D%224%22%20value%3D%22%26lt%3Bh1%26gt%3B%26lt%3Bbr%26gt%3B%26lt%3B%2Fh1%26gt%3B%26lt%3Bh1%26gt%3B%26lt%3Bb%26gt%3B%26lt%3Bfont%20color%3D%26quot%3B%23ffa500%26quot%3B%20style%3D%26quot%3Bfont-size%3A%2080px%3B%26quot%3B%26gt%3B%26lt%3Bbr%26gt%3B%26lt%3B%2Ffont%26gt%3B%26lt%3B%2Fb%26gt%3B%26lt%3B%2Fh1%26gt%3B%26lt%3Bh1%26gt%3B%26lt%3Bb%26gt%3B%26lt%3Bfont%20color%3D%26quot%3B%23ffa500%26quot%3B%20style%3D%26quot%3Bfont-size%3A%2080px%3B%26quot%3B%26gt%3B%26lt%3Bbr%26gt%3B%26lt%3B%2Ffont%26gt%3B%26lt%3B%2Fb%26gt%3B%26lt%3B%2Fh1%26gt%3B%26lt%3Bh1%26gt%3B%26lt%3Bb%26gt%3B%26lt%3Bfont%20color%3D%26quot%3B%23ffa500%26quot%3B%20style%3D%26quot%3Bfont-size%3A%2080px%3B%26quot%3B%26gt%3B%26lt%3Bbr%26gt%3B%26lt%3B%2Ffont%26gt%3B%26lt%3B%2Fb%26gt%3B%26lt%3B%2Fh1%26gt%3B%26lt%3Bh1%26gt%3B%26lt%3Bb%26gt%3B%26lt%3Bfont%20color%3D%26quot%3B%23ffa500%26quot%3B%20style%3D%26quot%3Bfont-size%3A%2080px%3B%26quot%3B%26gt%3B%26lt%3Bbr%26gt%3B%26lt%3B%2Ffont%26gt%3B%26lt%3B%2Fb%26gt%3B%26lt%3B%2Fh1%26gt%3B%26lt%3Bh1%26gt%3B%26lt%3Bb%20style%3D%26quot%3Bbackground-color%3A%20initial%3B%20font-size%3A%2012px%3B%26quot%3B%26gt%3B%26lt%3Bfont%20color%3D%26quot%3B%23ffa500%26quot%3B%20style%3D%26quot%3Bfont-size%3A%2080px%3B%26quot%3B%26gt%3BCUSTOMER%26lt%3B%2Ffont%26gt%3B%26lt%3B%2Fb%26gt%3B%26lt%3Bbr%26gt%3B%26lt%3B%2Fh1%26gt%3B%22%20style%3D%22shape%3Dactor%3BwhiteSpace%3Dwrap%3Bhtml%3D1%3BstrokeColor%3D%23d79b00%3BfillColor%3D%23fde9a5%3BgradientColor%3D%23ffa500%3B%22%20vertex%3D%221%22%20parent%3D%222%22%3E%3CmxGeometry%20x%3D%22168.8766519823788%22%20y%3D%222095.369085173502%22%20width%3D%22278.1497797356827%22%20height%3D%22388.7697160883282%22%20as%3D%22geometry%22%2F%3E%3C%2FmxCell%3E%3CmxCell%20id%3D%225%22%20style%3D%22edgeStyle%3DorthogonalEdgeStyle%3Brounded%3D0%3BorthogonalLoop%3D1%3BjettySize%3Dauto%3Bhtml%3D1%3BstrokeWidth%3D10%3B%22%20edge%3D%221%22%20parent%3D%222%22%20source%3D%226%22%20target%3D%229%22%3E%3CmxGeometry%20relative%3D%221%22%20as%3D%22geometry%22%2F%3E%3C%2FmxCell%3E%3CmxCell%20id%3D%226%22%20value%3D%22%26lt%3Bh1%26gt%3B%26lt%3Bfont%20color%3D%26quot%3B%23527040%26quot%3B%20face%3D%26quot%3BVerdana%26quot%3B%20style%3D%26quot%3Bfont-size%3A%2080px%3B%26quot%3B%26gt%3B%26lt%3Bb%20style%3D%26quot%3B%26quot%3B%26gt%3BECO%20UNIT%26lt%3B%2Fb%26gt%3B%26lt%3B%2Ffont%26gt%3B%26lt%3B%2Fh1%26gt%3B%22%20style%3D%22verticalAlign%3Dtop%3Balign%3Dcenter%3BspacingTop%3D8%3BspacingLeft%3D2%3BspacingRight%3D12%3Bshape%3Dcube%3Bsize%3D130%3Bdirection%3Dsouth%3BfontStyle%3D4%3Bhtml%3D1%3BwhiteSpace%3Dwrap%3BstrokeColor%3D%236D9656%3BfillColor%3D%23d5e8d4%3BstrokeWidth%3D13%3B%22%20vertex%3D%221%22%20parent%3D%222%22%3E%3CmxGeometry%20y%3D%2219.936908517350158%22%20width%3D%221798.0396475770924%22%20height%3D%221963.785488958991%22%20as%3D%22geometry%22%2F%3E%3C%2FmxCell%3E%3CmxCell%20id%3D%227%22%20value%3D%22%26lt%3Bh1%26gt%3B%26lt%3Bbr%26gt%3B%26lt%3B%2Fh1%26gt%3B%26lt%3Bh1%26gt%3B%26lt%3Bb%26gt%3B%26lt%3Bfont%20color%3D%26quot%3B%23d8d8e9%26quot%3B%20style%3D%26quot%3Bfont-size%3A%2080px%3B%26quot%3B%26gt%3B%26lt%3Bbr%26gt%3B%26lt%3B%2Ffont%26gt%3B%26lt%3B%2Fb%26gt%3B%26lt%3B%2Fh1%26gt%3B%26lt%3Bh1%26gt%3B%26lt%3Bb%26gt%3B%26lt%3Bfont%20color%3D%26quot%3B%23d8d8e9%26quot%3B%20style%3D%26quot%3Bfont-size%3A%2080px%3B%26quot%3B%26gt%3B%26lt%3Bbr%26gt%3B%26lt%3B%2Ffont%26gt%3B%26lt%3B%2Fb%26gt%3B%26lt%3B%2Fh1%26gt%3B%26lt%3Bh1%26gt%3B%26lt%3Bb%26gt%3B%26lt%3Bfont%20color%3D%26quot%3B%23d8d8e9%26quot%3B%20style%3D%26quot%3Bfont-size%3A%2080px%3B%26quot%3B%26gt%3B%26lt%3Bbr%26gt%3B%26lt%3B%2Ffont%26gt%3B%26lt%3B%2Fb%26gt%3B%26lt%3B%2Fh1%26gt%3B%26lt%3Bh1%26gt%3B%26lt%3Bb%20style%3D%26quot%3Bbackground-color%3A%20initial%3B%20font-size%3A%2012px%3B%26quot%3B%26gt%3B%26lt%3Bfont%20color%3D%26quot%3B%23d8d8e9%26quot%3B%20style%3D%26quot%3Bfont-size%3A%2080px%3B%26quot%3B%26gt%3B%26lt%3Bbr%26gt%3B%26lt%3B%2Ffont%26gt%3B%26lt%3B%2Fb%26gt%3B%26lt%3B%2Fh1%26gt%3B%26lt%3Bh1%26gt%3B%26lt%3Bspan%20style%3D%26quot%3Bfont-size%3A%2080px%3B%26quot%3B%26gt%3B%26lt%3Bfont%20color%3D%26quot%3B%232e17ff%26quot%3B%26gt%3BBACKOFFICE%26lt%3B%2Ffont%26gt%3B%26lt%3B%2Fspan%26gt%3B%26lt%3B%2Fh1%26gt%3B%22%20style%3D%22shape%3Dactor%3BwhiteSpace%3Dwrap%3Bhtml%3D1%3BstrokeColor%3D%236c8ebf%3BfillColor%3D%23dae8fc%3BgradientColor%3D%232E17FF%3B%22%20vertex%3D%221%22%20parent%3D%222%22%3E%3CmxGeometry%20x%3D%22168.8766519823788%22%20y%3D%222649.6151419558364%22%20width%3D%22278.1497797356827%22%20height%3D%22388.7697160883282%22%20as%3D%22geometry%22%2F%3E%3C%2FmxCell%3E%3CmxCell%20id%3D%228%22%20style%3D%22edgeStyle%3DorthogonalEdgeStyle%3Brounded%3D0%3BorthogonalLoop%3D1%3BjettySize%3Dauto%3Bhtml%3D1%3BstrokeWidth%3D15%3B%22%20edge%3D%221%22%20parent%3D%222%22%20source%3D%229%22%20target%3D%2216%22%3E%3CmxGeometry%20relative%3D%221%22%20as%3D%22geometry%22%2F%3E%3C%2FmxCell%3E%3CmxCell%20id%3D%229%22%20value%3D%22%26lt%3Bh1%26gt%3B%26lt%3Bfont%20face%3D%26quot%3BVerdana%26quot%3B%20color%3D%26quot%3B%232e17ff%26quot%3B%26gt%3B%26lt%3Bspan%20style%3D%26quot%3Bfont-size%3A%2080px%3B%26quot%3B%26gt%3BBACKEND%26lt%3B%2Fspan%26gt%3B%26lt%3B%2Ffont%26gt%3B%26lt%3B%2Fh1%26gt%3B%26lt%3Bdiv%26gt%3B%26lt%3Bfont%20face%3D%26quot%3BVerdana%26quot%3B%20color%3D%26quot%3B%232e17ff%26quot%3B%26gt%3B%26lt%3Bspan%20style%3D%26quot%3Bfont-size%3A%2080px%3B%26quot%3B%26gt%3B%26lt%3Bbr%26gt%3B%26lt%3B%2Fspan%26gt%3B%26lt%3B%2Ffont%26gt%3B%26lt%3B%2Fdiv%26gt%3B%22%20style%3D%22verticalAlign%3Dtop%3Balign%3Dcenter%3BspacingTop%3D8%3BspacingLeft%3D2%3BspacingRight%3D12%3Bshape%3Dcube%3Bsize%3D130%3Bdirection%3Dsouth%3BfontStyle%3D4%3Bhtml%3D1%3BwhiteSpace%3Dwrap%3BstrokeColor%3D%232E17FF%3BfillColor%3D%23cce5ff%3BstrokeWidth%3D13%3B%22%20vertex%3D%221%22%20parent%3D%222%22%3E%3CmxGeometry%20x%3D%221954.9955947136561%22%20width%3D%221996.7180616740081%22%20height%3D%223160.0000000000005%22%20as%3D%22geometry%22%2F%3E%3C%2FmxCell%3E%3CmxCell%20id%3D%2210%22%20value%3D%22%26lt%3Bfont%20color%3D%26quot%3B%23ffffff%26quot%3B%20style%3D%26quot%3Bfont-size%3A%2030px%3B%26quot%3B%26gt%3B%26lt%3Bb%20style%3D%26quot%3B%26quot%3B%26gt%3BPURE%20PYTHON%20API%26lt%3B%2Fb%26gt%3B%26lt%3B%2Ffont%26gt%3B%22%20style%3D%22shape%3DumlFrame%3BwhiteSpace%3Dwrap%3Bhtml%3D1%3BpointerEvents%3D0%3BstrokeWidth%3D10%3BstrokeColor%3D%232E17FF%3Bdashed%3D1%3Balign%3Dcenter%3Bwidth%3D299%3Bheight%3D60%3B%22%20vertex%3D%221%22%20parent%3D%222%22%3E%3CmxGeometry%20x%3D%221996.7180616740081%22%20y%3D%22179.43217665615146%22%20width%3D%221758.303964757709%22%20height%3D%222920.757097791798%22%20as%3D%22geometry%22%2F%3E%3C%2FmxCell%3E%3CmxCell%20id%3D%2211%22%20style%3D%22edgeStyle%3DorthogonalEdgeStyle%3Brounded%3D0%3BorthogonalLoop%3D1%3BjettySize%3Dauto%3Bhtml%3D1%3BentryX%3D0.719%3BentryY%3D0.993%3BentryDx%3D0%3BentryDy%3D0%3BentryPerimeter%3D0%3BstrokeWidth%3D10%3B%22%20edge%3D%221%22%20parent%3D%222%22%20source%3D%227%22%20target%3D%2214%22%3E%3CmxGeometry%20relative%3D%221%22%20as%3D%22geometry%22%2F%3E%3C%2FmxCell%3E%3CmxCell%20id%3D%2212%22%20style%3D%22edgeStyle%3DorthogonalEdgeStyle%3Brounded%3D0%3BorthogonalLoop%3D1%3BjettySize%3Dauto%3Bhtml%3D1%3BentryX%3D0.227%3BentryY%3D1%3BentryDx%3D0%3BentryDy%3D0%3BentryPerimeter%3D0%3BstrokeWidth%3D10%3B%22%20edge%3D%221%22%20parent%3D%222%22%20source%3D%224%22%20target%3D%2214%22%3E%3CmxGeometry%20relative%3D%221%22%20as%3D%22geometry%22%2F%3E%3C%2FmxCell%3E%3CmxCell%20id%3D%2213%22%20value%3D%22%22%20style%3D%22group%22%20vertex%3D%221%22%20connectable%3D%220%22%20parent%3D%222%22%3E%3CmxGeometry%20x%3D%22824.5154185022024%22%20y%3D%222033.5646687697165%22%20width%3D%22953.656387665198%22%20height%3D%221126.4353312302842%22%20as%3D%22geometry%22%2F%3E%3C%2FmxCell%3E%3CmxCell%20id%3D%2214%22%20value%3D%22%26lt%3Bh1%26gt%3B%26lt%3Bfont%20color%3D%26quot%3B%239673a6%26quot%3B%20face%3D%26quot%3BVerdana%26quot%3B%20style%3D%26quot%3Bfont-size%3A%2080px%3B%26quot%3B%26gt%3B%26lt%3Bb%20style%3D%26quot%3B%26quot%3B%26gt%3BUX%26lt%3B%2Fb%26gt%3B%26lt%3B%2Ffont%26gt%3B%26lt%3B%2Fh1%26gt%3B%22%20style%3D%22verticalAlign%3Dtop%3Balign%3Dcenter%3BspacingTop%3D8%3BspacingLeft%3D2%3BspacingRight%3D12%3Bshape%3Dcube%3Bsize%3D130%3Bdirection%3Dsouth%3BfontStyle%3D4%3Bhtml%3D1%3BwhiteSpace%3Dwrap%3BstrokeColor%3D%239673a6%3BfillColor%3D%23e1d5e7%3BstrokeWidth%3D13%3B%22%20vertex%3D%221%22%20parent%3D%2213%22%3E%3CmxGeometry%20width%3D%22953.656387665198%22%20height%3D%221126.4353312302842%22%20as%3D%22geometry%22%2F%3E%3C%2FmxCell%3E%3CmxCell%20id%3D%2215%22%20value%3D%22%22%20style%3D%22verticalLabelPosition%3Dbottom%3Baspect%3Dfixed%3Bhtml%3D1%3Bshape%3Dmxgraph.salesforce.web%3B%22%20vertex%3D%221%22%20parent%3D%2213%22%3E%3CmxGeometry%20x%3D%2265.48000000000002%22%20y%3D%22166.44%22%20width%3D%22217.86%22%20height%3D%22172.11%22%20as%3D%22geometry%22%2F%3E%3C%2FmxCell%3E%3CmxCell%20id%3D%2216%22%20value%3D%22%26lt%3Bfont%20style%3D%26quot%3Bfont-size%3A%2090px%3B%26quot%3B%26gt%3BDATABASE%26lt%3B%2Ffont%26gt%3B%22%20style%3D%22image%3Bhtml%3D1%3Bimage%3Dimg%2Flib%2Fclip_art%2Fcomputers%2FDatabase_128x128.png%22%20vertex%3D%221%22%20parent%3D%222%22%3E%3CmxGeometry%20x%3D%224062.9735682819373%22%20y%3D%221176.2776025236594%22%20width%3D%22447.02643171806164%22%20height%3D%22807.4447949526816%22%20as%3D%22geometry%22%2F%3E%3C%2FmxCell%3E%3C%2Froot%3E%3C%2FmxGraphModel%3E&lt;/span&gt;" style="verticalLabelPosition=bottom;aspect=fixed;html=1;shape=mxgraph.salesforce.web;rounded=0;" vertex="1" parent="gWoKqz0lpScKam20XCxX-64">
          <mxGeometry x="87.02713968957875" y="193.82101265822783" width="362.64037974683544" height="286.48689873417726" as="geometry" />
        </mxCell>
        <mxCell id="gWoKqz0lpScKam20XCxX-66" value="&lt;font style=&quot;font-size: 30px;&quot;&gt;BACKOFFICE SERVICES&lt;/font&gt;" style="shape=umlFrame;whiteSpace=wrap;html=1;pointerEvents=0;strokeWidth=10;strokeColor=#9673A6;dashed=1;align=center;width=445;height=56;rounded=0;" vertex="1" parent="gWoKqz0lpScKam20XCxX-64">
          <mxGeometry width="1473.4146341463415" height="649.1772151898734" as="geometry" />
        </mxCell>
        <mxCell id="gWoKqz0lpScKam20XCxX-353" value="Object" style="html=1;whiteSpace=wrap;strokeColor=#6c8ebf;fillColor=#dae8fc;strokeWidth=3;" vertex="1" parent="gWoKqz0lpScKam20XCxX-34">
          <mxGeometry x="1552.2705406487792" y="365.01931717445905" width="153.08203991130821" height="249.68354430379748" as="geometry" />
        </mxCell>
        <mxCell id="gWoKqz0lpScKam20XCxX-40" value="&lt;font style=&quot;font-size: 90px;&quot;&gt;DATABASE&lt;/font&gt;" style="image;html=1;image=img/lib/clip_art/computers/Database_128x128.png;rounded=0;" vertex="1" parent="gWoKqz0lpScKam20XCxX-42">
          <mxGeometry x="7774.603524229073" y="1974.6266421754583" width="855.3964757709251" height="1344.0378548895903" as="geometry" />
        </mxCell>
        <mxCell id="gWoKqz0lpScKam20XCxX-60" value="&lt;font style=&quot;font-size: 30px;&quot;&gt;ECO UNIT SKETCH&lt;/font&gt;" style="shape=umlFrame;whiteSpace=wrap;html=1;pointerEvents=0;strokeWidth=10;strokeColor=#6D9656;dashed=1;align=center;width=299;height=60;rounded=0;" vertex="1" parent="gWoKqz0lpScKam20XCxX-42">
          <mxGeometry x="-19.135254988913527" y="316.2658227848101" width="3042.5055432372505" height="2929.6202531645567" as="geometry" />
        </mxCell>
        <mxCell id="gWoKqz0lpScKam20XCxX-112" style="edgeStyle=orthogonalEdgeStyle;orthogonalLoop=1;jettySize=auto;html=1;entryX=0;entryY=0.25;entryDx=0;entryDy=0;strokeColor=#E07A5F;fontColor=#393C56;fillColor=#F2CC8F;exitX=1;exitY=0.5;exitDx=0;exitDy=0;strokeWidth=3;" edge="1" parent="gWoKqz0lpScKam20XCxX-42" source="gWoKqz0lpScKam20XCxX-73" target="gWoKqz0lpScKam20XCxX-79">
          <mxGeometry relative="1" as="geometry" />
        </mxCell>
        <mxCell id="gWoKqz0lpScKam20XCxX-70" value="&lt;div style=&quot;line-height: 100%;&quot;&gt;&amp;nbsp; &amp;nbsp;Controller[&quot;Controller&quot;]&lt;/div&gt;" style="swimlane;fontStyle=1;align=center;verticalAlign=top;childLayout=stackLayout;horizontal=1;startSize=30;horizontalStack=0;resizeParent=1;resizeParentMax=0;resizeLast=0;collapsible=1;marginBottom=0;whiteSpace=wrap;html=1;fontColor=#527040;fontSize=16;spacingBottom=0;movable=1;resizable=1;rotatable=1;deletable=1;editable=1;locked=0;connectable=1;labelPadding=0;swimlaneFillColor=default;rounded=0;" vertex="1" parent="gWoKqz0lpScKam20XCxX-42">
          <mxGeometry x="248.75831485587582" y="1514.746835443038" width="478.38137472283813" height="229.74683544303798" as="geometry">
            <mxRectangle x="730" y="910" width="200" height="30" as="alternateBounds" />
          </mxGeometry>
        </mxCell>
        <mxCell id="gWoKqz0lpScKam20XCxX-71" value="+ field: type" style="text;strokeColor=none;fillColor=none;align=left;verticalAlign=top;spacingLeft=4;spacingRight=4;overflow=hidden;rotatable=0;points=[[0,0.5],[1,0.5]];portConstraint=eastwest;whiteSpace=wrap;html=1;fontColor=#527040;rounded=0;" vertex="1" parent="gWoKqz0lpScKam20XCxX-70">
          <mxGeometry y="30" width="478.38137472283813" height="43.278481012658226" as="geometry" />
        </mxCell>
        <mxCell id="gWoKqz0lpScKam20XCxX-72" value="" style="line;strokeWidth=1;fillColor=none;align=left;verticalAlign=middle;spacingTop=-1;spacingLeft=3;spacingRight=3;rotatable=0;labelPosition=right;points=[];portConstraint=eastwest;strokeColor=inherit;rounded=0;" vertex="1" parent="gWoKqz0lpScKam20XCxX-70">
          <mxGeometry y="73.27848101265823" width="478.38137472283813" height="13.316455696202532" as="geometry" />
        </mxCell>
        <mxCell id="gWoKqz0lpScKam20XCxX-73" value="+ execute_strategies(type): type&lt;br&gt;&lt;div&gt;&lt;span style=&quot;background-color: initial;&quot;&gt;+ delegate_state_management(type): type&lt;/span&gt;&lt;/div&gt;&lt;div&gt;+ manage_sensor(type): type&lt;div&gt;+ manage_actuator(type): type&lt;br&gt;&lt;/div&gt;&lt;div&gt;+ handle_communication(type): type&lt;/div&gt;&lt;/div&gt;" style="text;strokeColor=none;fillColor=none;align=left;verticalAlign=top;spacingLeft=4;spacingRight=4;overflow=hidden;rotatable=0;points=[[0,0.5],[1,0.5]];portConstraint=eastwest;whiteSpace=wrap;html=1;fontColor=#527040;rounded=0;" vertex="1" parent="gWoKqz0lpScKam20XCxX-70">
          <mxGeometry y="86.59493670886076" width="478.38137472283813" height="143.15189873417722" as="geometry" />
        </mxCell>
        <mxCell id="gWoKqz0lpScKam20XCxX-79" value="&lt;div style=&quot;line-height: 100%;&quot;&gt;&lt;div style=&quot;font-size: 12px;&quot;&gt;Sensor[&quot;Sensor Module&quot;]&lt;/div&gt;&lt;/div&gt;" style="swimlane;fontStyle=1;align=center;verticalAlign=top;childLayout=stackLayout;horizontal=1;startSize=26;horizontalStack=0;resizeParent=1;resizeParentMax=0;resizeLast=0;collapsible=1;marginBottom=0;whiteSpace=wrap;html=1;fontColor=#527040;fontSize=16;spacingBottom=0;rounded=0;" vertex="1" parent="gWoKqz0lpScKam20XCxX-42">
          <mxGeometry x="1233.2671840354767" y="1657.8987341772151" width="478.38137472283813" height="125.87341772151899" as="geometry">
            <mxRectangle x="730" y="910" width="200" height="30" as="alternateBounds" />
          </mxGeometry>
        </mxCell>
        <mxCell id="gWoKqz0lpScKam20XCxX-80" value="+ field: type" style="text;strokeColor=none;fillColor=none;align=left;verticalAlign=top;spacingLeft=4;spacingRight=4;overflow=hidden;rotatable=0;points=[[0,0.5],[1,0.5]];portConstraint=eastwest;whiteSpace=wrap;html=1;fontColor=#527040;rounded=0;" vertex="1" parent="gWoKqz0lpScKam20XCxX-79">
          <mxGeometry y="26" width="478.38137472283813" height="43.278481012658226" as="geometry" />
        </mxCell>
        <mxCell id="gWoKqz0lpScKam20XCxX-81" value="" style="line;strokeWidth=1;fillColor=none;align=left;verticalAlign=middle;spacingTop=-1;spacingLeft=3;spacingRight=3;rotatable=0;labelPosition=right;points=[];portConstraint=eastwest;strokeColor=inherit;rounded=0;" vertex="1" parent="gWoKqz0lpScKam20XCxX-79">
          <mxGeometry y="69.27848101265823" width="478.38137472283813" height="13.316455696202532" as="geometry" />
        </mxCell>
        <mxCell id="gWoKqz0lpScKam20XCxX-82" value="+ method(type): type" style="text;strokeColor=none;fillColor=none;align=left;verticalAlign=top;spacingLeft=4;spacingRight=4;overflow=hidden;rotatable=0;points=[[0,0.5],[1,0.5]];portConstraint=eastwest;whiteSpace=wrap;html=1;fontColor=#527040;rounded=0;" vertex="1" parent="gWoKqz0lpScKam20XCxX-79">
          <mxGeometry y="82.59493670886076" width="478.38137472283813" height="43.278481012658226" as="geometry" />
        </mxCell>
        <mxCell id="gWoKqz0lpScKam20XCxX-83" value="&lt;div style=&quot;line-height: 100%;&quot;&gt;&lt;div style=&quot;font-size: 12px;&quot;&gt;Actuator[&quot;Actuator Module&quot;]&lt;/div&gt;&lt;/div&gt;" style="swimlane;fontStyle=1;align=center;verticalAlign=top;childLayout=stackLayout;horizontal=1;startSize=26;horizontalStack=0;resizeParent=1;resizeParentMax=0;resizeLast=0;collapsible=1;marginBottom=0;whiteSpace=wrap;html=1;fontColor=#527040;fontSize=16;spacingBottom=0;rounded=0;" vertex="1" parent="gWoKqz0lpScKam20XCxX-42">
          <mxGeometry x="1472.4578713968958" y="1957.985063291139" width="478.38137472283813" height="125.87341772151899" as="geometry">
            <mxRectangle x="730" y="910" width="200" height="30" as="alternateBounds" />
          </mxGeometry>
        </mxCell>
        <mxCell id="gWoKqz0lpScKam20XCxX-84" value="+ field: type" style="text;strokeColor=none;fillColor=none;align=left;verticalAlign=top;spacingLeft=4;spacingRight=4;overflow=hidden;rotatable=0;points=[[0,0.5],[1,0.5]];portConstraint=eastwest;whiteSpace=wrap;html=1;fontColor=#527040;rounded=0;" vertex="1" parent="gWoKqz0lpScKam20XCxX-83">
          <mxGeometry y="26" width="478.38137472283813" height="43.278481012658226" as="geometry" />
        </mxCell>
        <mxCell id="gWoKqz0lpScKam20XCxX-85" value="" style="line;strokeWidth=1;fillColor=none;align=left;verticalAlign=middle;spacingTop=-1;spacingLeft=3;spacingRight=3;rotatable=0;labelPosition=right;points=[];portConstraint=eastwest;strokeColor=inherit;rounded=0;" vertex="1" parent="gWoKqz0lpScKam20XCxX-83">
          <mxGeometry y="69.27848101265823" width="478.38137472283813" height="13.316455696202532" as="geometry" />
        </mxCell>
        <mxCell id="gWoKqz0lpScKam20XCxX-86" value="+ method(type): type" style="text;strokeColor=none;fillColor=none;align=left;verticalAlign=top;spacingLeft=4;spacingRight=4;overflow=hidden;rotatable=0;points=[[0,0.5],[1,0.5]];portConstraint=eastwest;whiteSpace=wrap;html=1;fontColor=#527040;rounded=0;" vertex="1" parent="gWoKqz0lpScKam20XCxX-83">
          <mxGeometry y="82.59493670886076" width="478.38137472283813" height="43.278481012658226" as="geometry" />
        </mxCell>
        <mxCell id="gWoKqz0lpScKam20XCxX-146" style="edgeStyle=orthogonalEdgeStyle;orthogonalLoop=1;jettySize=auto;html=1;entryX=0;entryY=0.5;entryDx=0;entryDy=0;strokeColor=#E07A5F;fontColor=#393C56;fillColor=#F2CC8F;exitX=1;exitY=0.5;exitDx=0;exitDy=0;strokeWidth=3;" edge="1" parent="gWoKqz0lpScKam20XCxX-42" source="gWoKqz0lpScKam20XCxX-90" target="gWoKqz0lpScKam20XCxX-145">
          <mxGeometry relative="1" as="geometry" />
        </mxCell>
        <mxCell id="gWoKqz0lpScKam20XCxX-87" value="&lt;div style=&quot;line-height: 100%;&quot;&gt;&lt;span style=&quot;font-size: 12px; background-color: initial;&quot;&gt;NetworkHandler[&quot;Network Handler&quot;]&lt;/span&gt;&lt;/div&gt;" style="swimlane;fontStyle=1;align=center;verticalAlign=top;childLayout=stackLayout;horizontal=1;startSize=26;horizontalStack=0;resizeParent=1;resizeParentMax=0;resizeLast=0;collapsible=1;marginBottom=0;whiteSpace=wrap;html=1;fontColor=#527040;fontSize=16;spacingBottom=0;rounded=0;" vertex="1" parent="gWoKqz0lpScKam20XCxX-42">
          <mxGeometry x="1990.0665188470066" y="2280.4430379746836" width="478.38137472283813" height="125.87341772151899" as="geometry">
            <mxRectangle x="730" y="910" width="200" height="30" as="alternateBounds" />
          </mxGeometry>
        </mxCell>
        <mxCell id="gWoKqz0lpScKam20XCxX-88" value="+ field: type" style="text;strokeColor=none;fillColor=none;align=left;verticalAlign=top;spacingLeft=4;spacingRight=4;overflow=hidden;rotatable=0;points=[[0,0.5],[1,0.5]];portConstraint=eastwest;whiteSpace=wrap;html=1;fontColor=#527040;rounded=0;" vertex="1" parent="gWoKqz0lpScKam20XCxX-87">
          <mxGeometry y="26" width="478.38137472283813" height="43.278481012658226" as="geometry" />
        </mxCell>
        <mxCell id="gWoKqz0lpScKam20XCxX-89" value="" style="line;strokeWidth=1;fillColor=none;align=left;verticalAlign=middle;spacingTop=-1;spacingLeft=3;spacingRight=3;rotatable=0;labelPosition=right;points=[];portConstraint=eastwest;strokeColor=inherit;rounded=0;" vertex="1" parent="gWoKqz0lpScKam20XCxX-87">
          <mxGeometry y="69.27848101265823" width="478.38137472283813" height="13.316455696202532" as="geometry" />
        </mxCell>
        <mxCell id="gWoKqz0lpScKam20XCxX-90" value="+ method(type): type" style="text;strokeColor=none;fillColor=none;align=left;verticalAlign=top;spacingLeft=4;spacingRight=4;overflow=hidden;rotatable=0;points=[[0,0.5],[1,0.5]];portConstraint=eastwest;whiteSpace=wrap;html=1;fontColor=#527040;rounded=0;" vertex="1" parent="gWoKqz0lpScKam20XCxX-87">
          <mxGeometry y="82.59493670886076" width="478.38137472283813" height="43.278481012658226" as="geometry" />
        </mxCell>
        <mxCell id="gWoKqz0lpScKam20XCxX-91" value="&lt;div style=&quot;line-height: 100%;&quot;&gt;&lt;span style=&quot;font-size: 12px; background-color: initial;&quot;&gt;StateManager[&quot;State Manager&quot;]&lt;/span&gt;&lt;/div&gt;" style="swimlane;fontStyle=1;align=center;verticalAlign=top;childLayout=stackLayout;horizontal=1;startSize=26;horizontalStack=0;resizeParent=1;resizeParentMax=0;resizeLast=0;collapsible=1;marginBottom=0;whiteSpace=wrap;html=1;fontColor=#527040;fontSize=16;spacingBottom=0;rounded=0;" vertex="1" parent="gWoKqz0lpScKam20XCxX-42">
          <mxGeometry x="1094.5365853658536" y="1246.753164556962" width="478.38137472283813" height="125.87341772151899" as="geometry">
            <mxRectangle x="730" y="910" width="200" height="30" as="alternateBounds" />
          </mxGeometry>
        </mxCell>
        <mxCell id="gWoKqz0lpScKam20XCxX-92" value="+ field: type" style="text;strokeColor=none;fillColor=none;align=left;verticalAlign=top;spacingLeft=4;spacingRight=4;overflow=hidden;rotatable=0;points=[[0,0.5],[1,0.5]];portConstraint=eastwest;whiteSpace=wrap;html=1;fontColor=#527040;rounded=0;" vertex="1" parent="gWoKqz0lpScKam20XCxX-91">
          <mxGeometry y="26" width="478.38137472283813" height="43.278481012658226" as="geometry" />
        </mxCell>
        <mxCell id="gWoKqz0lpScKam20XCxX-93" value="" style="line;strokeWidth=1;fillColor=none;align=left;verticalAlign=middle;spacingTop=-1;spacingLeft=3;spacingRight=3;rotatable=0;labelPosition=right;points=[];portConstraint=eastwest;strokeColor=inherit;rounded=0;" vertex="1" parent="gWoKqz0lpScKam20XCxX-91">
          <mxGeometry y="69.27848101265823" width="478.38137472283813" height="13.316455696202532" as="geometry" />
        </mxCell>
        <mxCell id="gWoKqz0lpScKam20XCxX-94" value="+ define_state(type): type" style="text;strokeColor=none;fillColor=none;align=left;verticalAlign=top;spacingLeft=4;spacingRight=4;overflow=hidden;rotatable=0;points=[[0,0.5],[1,0.5]];portConstraint=eastwest;whiteSpace=wrap;html=1;fontColor=#527040;rounded=0;" vertex="1" parent="gWoKqz0lpScKam20XCxX-91">
          <mxGeometry y="82.59493670886076" width="478.38137472283813" height="43.278481012658226" as="geometry" />
        </mxCell>
        <mxCell id="gWoKqz0lpScKam20XCxX-130" style="edgeStyle=orthogonalEdgeStyle;orthogonalLoop=1;jettySize=auto;html=1;exitX=0;exitY=0.5;exitDx=0;exitDy=0;strokeColor=#E07A5F;fontColor=#393C56;fillColor=#F2CC8F;dashed=1;entryX=-0.001;entryY=0.341;entryDx=0;entryDy=0;entryPerimeter=0;dashPattern=8 8;strokeWidth=3;" edge="1" parent="gWoKqz0lpScKam20XCxX-42" source="gWoKqz0lpScKam20XCxX-98" target="gWoKqz0lpScKam20XCxX-73">
          <mxGeometry relative="1" as="geometry">
            <Array as="points">
              <mxPoint x="132.03325942350332" y="987.0822784810126" />
              <mxPoint x="132.03325942350332" y="1669.5506329113923" />
            </Array>
          </mxGeometry>
        </mxCell>
        <mxCell id="gWoKqz0lpScKam20XCxX-95" value="&lt;div style=&quot;line-height: 100%;&quot;&gt;&lt;span style=&quot;font-size: 12px;&quot;&gt;StrategyHandler[&quot;Strategy Handler&quot;]&lt;/span&gt;&lt;br&gt;&lt;/div&gt;" style="swimlane;fontStyle=1;align=center;verticalAlign=top;childLayout=stackLayout;horizontal=1;startSize=26;horizontalStack=0;resizeParent=1;resizeParentMax=0;resizeLast=0;collapsible=1;marginBottom=0;whiteSpace=wrap;html=1;fontColor=#527040;fontSize=16;spacingBottom=0;rounded=0;" vertex="1" parent="gWoKqz0lpScKam20XCxX-42">
          <mxGeometry x="744.3614190687362" y="865.5696202531645" width="556.8359201773836" height="125.87341772151899" as="geometry">
            <mxRectangle x="730" y="910" width="200" height="30" as="alternateBounds" />
          </mxGeometry>
        </mxCell>
        <mxCell id="gWoKqz0lpScKam20XCxX-96" value="+ field: type" style="text;strokeColor=none;fillColor=none;align=left;verticalAlign=top;spacingLeft=4;spacingRight=4;overflow=hidden;rotatable=0;points=[[0,0.5],[1,0.5]];portConstraint=eastwest;whiteSpace=wrap;html=1;fontColor=#527040;rounded=0;" vertex="1" parent="gWoKqz0lpScKam20XCxX-95">
          <mxGeometry y="26" width="556.8359201773836" height="43.278481012658226" as="geometry" />
        </mxCell>
        <mxCell id="gWoKqz0lpScKam20XCxX-97" value="" style="line;strokeWidth=1;fillColor=none;align=left;verticalAlign=middle;spacingTop=-1;spacingLeft=3;spacingRight=3;rotatable=0;labelPosition=right;points=[];portConstraint=eastwest;strokeColor=inherit;rounded=0;" vertex="1" parent="gWoKqz0lpScKam20XCxX-95">
          <mxGeometry y="69.27848101265823" width="556.8359201773836" height="13.316455696202532" as="geometry" />
        </mxCell>
        <mxCell id="gWoKqz0lpScKam20XCxX-98" value="+ dynamic_behavior_implementation(type): type" style="text;strokeColor=none;fillColor=none;align=left;verticalAlign=top;spacingLeft=4;spacingRight=4;overflow=hidden;rotatable=0;points=[[0,0.5],[1,0.5]];portConstraint=eastwest;whiteSpace=wrap;html=1;fontColor=#527040;rounded=0;" vertex="1" parent="gWoKqz0lpScKam20XCxX-95">
          <mxGeometry y="82.59493670886076" width="556.8359201773836" height="43.278481012658226" as="geometry" />
        </mxCell>
        <mxCell id="gWoKqz0lpScKam20XCxX-113" style="edgeStyle=orthogonalEdgeStyle;orthogonalLoop=1;jettySize=auto;html=1;entryX=0;entryY=0.25;entryDx=0;entryDy=0;strokeColor=#E07A5F;fontColor=#393C56;fillColor=#F2CC8F;exitX=0.996;exitY=0.662;exitDx=0;exitDy=0;exitPerimeter=0;strokeWidth=3;" edge="1" parent="gWoKqz0lpScKam20XCxX-42" source="gWoKqz0lpScKam20XCxX-73" target="gWoKqz0lpScKam20XCxX-83">
          <mxGeometry relative="1" as="geometry" />
        </mxCell>
        <mxCell id="gWoKqz0lpScKam20XCxX-114" style="edgeStyle=orthogonalEdgeStyle;orthogonalLoop=1;jettySize=auto;html=1;entryX=0;entryY=0.25;entryDx=0;entryDy=0;strokeColor=#E07A5F;fontColor=#393C56;fillColor=#F2CC8F;exitX=0.996;exitY=0.14;exitDx=0;exitDy=0;exitPerimeter=0;strokeWidth=3;" edge="1" parent="gWoKqz0lpScKam20XCxX-42" source="gWoKqz0lpScKam20XCxX-73" target="gWoKqz0lpScKam20XCxX-95">
          <mxGeometry relative="1" as="geometry" />
        </mxCell>
        <mxCell id="gWoKqz0lpScKam20XCxX-115" style="edgeStyle=orthogonalEdgeStyle;orthogonalLoop=1;jettySize=auto;html=1;entryX=0;entryY=0.25;entryDx=0;entryDy=0;strokeColor=#E07A5F;fontColor=#393C56;fillColor=#F2CC8F;exitX=1.001;exitY=0.316;exitDx=0;exitDy=0;exitPerimeter=0;strokeWidth=3;" edge="1" parent="gWoKqz0lpScKam20XCxX-42" source="gWoKqz0lpScKam20XCxX-73" target="gWoKqz0lpScKam20XCxX-91">
          <mxGeometry relative="1" as="geometry" />
        </mxCell>
        <mxCell id="gWoKqz0lpScKam20XCxX-117" style="edgeStyle=orthogonalEdgeStyle;orthogonalLoop=1;jettySize=auto;html=1;entryX=0;entryY=0.25;entryDx=0;entryDy=0;strokeColor=#E07A5F;fontColor=#393C56;fillColor=#F2CC8F;exitX=1;exitY=0.833;exitDx=0;exitDy=0;exitPerimeter=0;strokeWidth=3;" edge="1" parent="gWoKqz0lpScKam20XCxX-42" source="gWoKqz0lpScKam20XCxX-73" target="gWoKqz0lpScKam20XCxX-87">
          <mxGeometry relative="1" as="geometry">
            <Array as="points">
              <mxPoint x="1012.2549889135255" y="1741.126582278481" />
              <mxPoint x="1012.2549889135255" y="2317.0632911392404" />
            </Array>
          </mxGeometry>
        </mxCell>
        <mxCell id="gWoKqz0lpScKam20XCxX-118" value="&lt;div style=&quot;line-height: 100%;&quot;&gt;&lt;span style=&quot;font-size: 12px;&quot;&gt;Strategies[&quot;Strategy Pattern&quot;]&lt;/span&gt;&lt;br&gt;&lt;/div&gt;" style="swimlane;fontStyle=1;align=center;verticalAlign=top;childLayout=stackLayout;horizontal=1;startSize=26;horizontalStack=0;resizeParent=1;resizeParentMax=0;resizeLast=0;collapsible=1;marginBottom=0;whiteSpace=wrap;html=1;fontColor=#527040;fontSize=16;spacingBottom=0;rounded=0;" vertex="1" parent="gWoKqz0lpScKam20XCxX-42">
          <mxGeometry x="1433.230598669623" y="865.5696202531645" width="556.8359201773836" height="125.87341772151899" as="geometry">
            <mxRectangle x="730" y="910" width="200" height="30" as="alternateBounds" />
          </mxGeometry>
        </mxCell>
        <mxCell id="gWoKqz0lpScKam20XCxX-119" value="+ strategies: type" style="text;strokeColor=none;fillColor=none;align=left;verticalAlign=top;spacingLeft=4;spacingRight=4;overflow=hidden;rotatable=0;points=[[0,0.5],[1,0.5]];portConstraint=eastwest;whiteSpace=wrap;html=1;fontColor=#527040;rounded=0;" vertex="1" parent="gWoKqz0lpScKam20XCxX-118">
          <mxGeometry y="26" width="556.8359201773836" height="43.278481012658226" as="geometry" />
        </mxCell>
        <mxCell id="gWoKqz0lpScKam20XCxX-120" value="" style="line;strokeWidth=1;fillColor=none;align=left;verticalAlign=middle;spacingTop=-1;spacingLeft=3;spacingRight=3;rotatable=0;labelPosition=right;points=[];portConstraint=eastwest;strokeColor=inherit;rounded=0;" vertex="1" parent="gWoKqz0lpScKam20XCxX-118">
          <mxGeometry y="69.27848101265823" width="556.8359201773836" height="13.316455696202532" as="geometry" />
        </mxCell>
        <mxCell id="gWoKqz0lpScKam20XCxX-121" value="+ strategies(type): type" style="text;strokeColor=none;fillColor=none;align=left;verticalAlign=top;spacingLeft=4;spacingRight=4;overflow=hidden;rotatable=0;points=[[0,0.5],[1,0.5]];portConstraint=eastwest;whiteSpace=wrap;html=1;fontColor=#527040;rounded=0;" vertex="1" parent="gWoKqz0lpScKam20XCxX-118">
          <mxGeometry y="82.59493670886076" width="556.8359201773836" height="43.278481012658226" as="geometry" />
        </mxCell>
        <mxCell id="gWoKqz0lpScKam20XCxX-126" style="edgeStyle=orthogonalEdgeStyle;orthogonalLoop=1;jettySize=auto;html=1;exitX=1;exitY=0.5;exitDx=0;exitDy=0;entryX=0;entryY=0.25;entryDx=0;entryDy=0;strokeColor=#E07A5F;fontColor=#393C56;fillColor=#F2CC8F;" edge="1" parent="gWoKqz0lpScKam20XCxX-42" source="gWoKqz0lpScKam20XCxX-98" target="gWoKqz0lpScKam20XCxX-118">
          <mxGeometry relative="1" as="geometry" />
        </mxCell>
        <mxCell id="gWoKqz0lpScKam20XCxX-131" value="&lt;div style=&quot;line-height: 100%;&quot;&gt;&lt;span style=&quot;font-size: 12px; background-color: initial;&quot;&gt;StateFlyweights[&quot;FlyweightStatePool&quot;]&lt;/span&gt;&lt;/div&gt;" style="swimlane;fontStyle=1;align=center;verticalAlign=top;childLayout=stackLayout;horizontal=1;startSize=26;horizontalStack=0;resizeParent=1;resizeParentMax=0;resizeLast=0;collapsible=1;marginBottom=0;whiteSpace=wrap;html=1;fontColor=#527040;fontSize=16;spacingBottom=0;rounded=0;" vertex="1" parent="gWoKqz0lpScKam20XCxX-42">
          <mxGeometry x="1714.5188470066519" y="1246.753164556962" width="478.38137472283813" height="125.87341772151899" as="geometry">
            <mxRectangle x="730" y="910" width="200" height="30" as="alternateBounds" />
          </mxGeometry>
        </mxCell>
        <mxCell id="gWoKqz0lpScKam20XCxX-132" value="+ field: type" style="text;strokeColor=none;fillColor=none;align=left;verticalAlign=top;spacingLeft=4;spacingRight=4;overflow=hidden;rotatable=0;points=[[0,0.5],[1,0.5]];portConstraint=eastwest;whiteSpace=wrap;html=1;fontColor=#527040;rounded=0;" vertex="1" parent="gWoKqz0lpScKam20XCxX-131">
          <mxGeometry y="26" width="478.38137472283813" height="43.278481012658226" as="geometry" />
        </mxCell>
        <mxCell id="gWoKqz0lpScKam20XCxX-133" value="" style="line;strokeWidth=1;fillColor=none;align=left;verticalAlign=middle;spacingTop=-1;spacingLeft=3;spacingRight=3;rotatable=0;labelPosition=right;points=[];portConstraint=eastwest;strokeColor=inherit;rounded=0;" vertex="1" parent="gWoKqz0lpScKam20XCxX-131">
          <mxGeometry y="69.27848101265823" width="478.38137472283813" height="13.316455696202532" as="geometry" />
        </mxCell>
        <mxCell id="gWoKqz0lpScKam20XCxX-134" value="+ method(type): type" style="text;strokeColor=none;fillColor=none;align=left;verticalAlign=top;spacingLeft=4;spacingRight=4;overflow=hidden;rotatable=0;points=[[0,0.5],[1,0.5]];portConstraint=eastwest;whiteSpace=wrap;html=1;fontColor=#527040;rounded=0;" vertex="1" parent="gWoKqz0lpScKam20XCxX-131">
          <mxGeometry y="82.59493670886076" width="478.38137472283813" height="43.278481012658226" as="geometry" />
        </mxCell>
        <mxCell id="gWoKqz0lpScKam20XCxX-135" style="edgeStyle=orthogonalEdgeStyle;orthogonalLoop=1;jettySize=auto;html=1;entryX=0;entryY=0.25;entryDx=0;entryDy=0;strokeColor=#E07A5F;fontColor=#393C56;fillColor=#F2CC8F;" edge="1" parent="gWoKqz0lpScKam20XCxX-42" source="gWoKqz0lpScKam20XCxX-94" target="gWoKqz0lpScKam20XCxX-131">
          <mxGeometry relative="1" as="geometry" />
        </mxCell>
        <mxCell id="gWoKqz0lpScKam20XCxX-136" style="edgeStyle=orthogonalEdgeStyle;orthogonalLoop=1;jettySize=auto;html=1;exitX=0;exitY=0.5;exitDx=0;exitDy=0;entryX=0;entryY=0.5;entryDx=0;entryDy=0;strokeColor=#E07A5F;fontColor=#393C56;fillColor=#F2CC8F;dashed=1;dashPattern=8 8;strokeWidth=3;" edge="1" parent="gWoKqz0lpScKam20XCxX-42" source="gWoKqz0lpScKam20XCxX-94" target="gWoKqz0lpScKam20XCxX-73">
          <mxGeometry relative="1" as="geometry" />
        </mxCell>
        <mxCell id="gWoKqz0lpScKam20XCxX-137" style="edgeStyle=orthogonalEdgeStyle;orthogonalLoop=1;jettySize=auto;html=1;exitX=0;exitY=0.5;exitDx=0;exitDy=0;entryX=0.003;entryY=0.635;entryDx=0;entryDy=0;entryPerimeter=0;strokeColor=#E07A5F;fontColor=#393C56;fillColor=#F2CC8F;dashed=1;dashPattern=8 8;strokeWidth=3;" edge="1" parent="gWoKqz0lpScKam20XCxX-42" source="gWoKqz0lpScKam20XCxX-82" target="gWoKqz0lpScKam20XCxX-73">
          <mxGeometry relative="1" as="geometry" />
        </mxCell>
        <mxCell id="gWoKqz0lpScKam20XCxX-147" style="edgeStyle=orthogonalEdgeStyle;orthogonalLoop=1;jettySize=auto;html=1;entryX=0;entryY=0.5;entryDx=0;entryDy=0;strokeColor=#E07A5F;fontColor=#393C56;fillColor=#F2CC8F;dashed=1;dashPattern=8 8;strokeWidth=3;" edge="1" parent="gWoKqz0lpScKam20XCxX-42" source="gWoKqz0lpScKam20XCxX-145" target="gWoKqz0lpScKam20XCxX-90">
          <mxGeometry relative="1" as="geometry" />
        </mxCell>
        <mxCell id="gWoKqz0lpScKam20XCxX-145" value="Object" style="html=1;whiteSpace=wrap;strokeColor=#6c8ebf;fillColor=#dae8fc;strokeWidth=3;" vertex="1" parent="gWoKqz0lpScKam20XCxX-42">
          <mxGeometry x="3138.1818181818185" y="1564.6835443037974" width="153.08203991130821" height="249.68354430379748" as="geometry" />
        </mxCell>
        <mxCell id="gWoKqz0lpScKam20XCxX-148" style="edgeStyle=orthogonalEdgeStyle;orthogonalLoop=1;jettySize=auto;html=1;exitX=0;exitY=0.5;exitDx=0;exitDy=0;entryX=0;entryY=0.5;entryDx=0;entryDy=0;strokeColor=#E07A5F;fontColor=#393C56;fillColor=#F2CC8F;dashed=1;dashPattern=8 8;strokeWidth=3;" edge="1" parent="gWoKqz0lpScKam20XCxX-42" source="gWoKqz0lpScKam20XCxX-90" target="gWoKqz0lpScKam20XCxX-73">
          <mxGeometry relative="1" as="geometry">
            <Array as="points">
              <mxPoint x="133.94678492239467" y="2401.9556962025317" />
              <mxPoint x="133.94678492239467" y="1692.8544303797469" />
            </Array>
          </mxGeometry>
        </mxCell>
        <mxCell id="gWoKqz0lpScKam20XCxX-149" value="&lt;h1 style=&quot;margin-top: 0px;&quot;&gt;Diagram Explanation&lt;/h1&gt;&lt;p&gt;&lt;span style=&quot;background-color: initial;&quot;&gt;1. **&lt;b&gt;Controller&lt;/b&gt;**: Serves as the central orchestrator within each Eco Unit, managing modules like sensors, actuators, and communication.&lt;/span&gt;&lt;br&gt;&lt;/p&gt;&lt;p&gt;2. **&lt;b&gt;State Manager&lt;/b&gt;**: Handles the current operational states of the Eco Unit, leveraging the Flyweight pattern to optimize memory usage.&lt;/p&gt;&lt;p&gt;3. **&lt;b&gt;Strategy Handler&lt;/b&gt;**: Implements dynamic behaviors for different situations using the Strategy pattern, ensuring adaptability.&lt;/p&gt;&lt;p&gt;4. **&lt;b&gt;Network Handler&lt;/b&gt;**: Manages communication with the Server API, sending data and receiving configurations.&lt;/p&gt;&lt;p&gt;5. **&lt;b&gt;External Communication&lt;/b&gt;**: The Eco Unit communicates with the Server API for centralized management and configuration updates.&lt;/p&gt;&lt;p&gt;&lt;br&gt;&lt;/p&gt;&lt;p&gt;This diagram highlights &lt;b&gt;modularity, adaptability, and resource optimization&lt;/b&gt; as the core principles of the Eco Unit architecture.&lt;/p&gt;" style="text;html=1;whiteSpace=wrap;overflow=hidden;rounded=0;fontColor=#393C56;" vertex="1" parent="gWoKqz0lpScKam20XCxX-42">
          <mxGeometry x="38.270509977827054" y="2729.8734177215188" width="2889.4235033259424" height="432.7848101265823" as="geometry" />
        </mxCell>
        <mxCell id="gWoKqz0lpScKam20XCxX-155" value="&lt;div style=&quot;color: rgb(212, 212, 212); background-color: rgb(30, 30, 30); font-family: Consolas, &amp;quot;Courier New&amp;quot;, monospace; font-size: 14px; line-height: 19px; white-space: pre;&quot;&gt;&lt;div style=&quot;line-height: 19px;&quot;&gt;&lt;span style=&quot;color: #569cd6;&quot;&gt;INSERT INTO&lt;/span&gt; &lt;span style=&quot;color: #ce9178;&quot;&gt;sensor_status&lt;/span&gt;&lt;/div&gt;&lt;/div&gt;" style="shape=module;align=left;spacingLeft=20;align=center;verticalAlign=top;whiteSpace=wrap;html=1;strokeColor=#E07A5F;fontColor=#393C56;fillColor=#F2CC8F;" vertex="1" parent="gWoKqz0lpScKam20XCxX-42">
          <mxGeometry x="6608.073281596452" y="1481.4556962025317" width="459.2461197339246" height="99.87341772151899" as="geometry" />
        </mxCell>
        <mxCell id="gWoKqz0lpScKam20XCxX-156" value="&lt;div style=&quot;color: rgb(212, 212, 212); background-color: rgb(30, 30, 30); font-family: Consolas, &amp;quot;Courier New&amp;quot;, monospace; font-size: 14px; line-height: 19px; white-space: pre;&quot;&gt;&lt;div style=&quot;line-height: 19px;&quot;&gt;&lt;div style=&quot;line-height: 19px;&quot;&gt;&lt;span style=&quot;color: #569cd6;&quot;&gt;INSERT INTO&lt;/span&gt; &lt;span style=&quot;color: #ce9178;&quot;&gt;`config_status`&lt;/span&gt;&lt;/div&gt;&lt;/div&gt;&lt;/div&gt;" style="shape=module;align=left;spacingLeft=20;align=center;verticalAlign=top;whiteSpace=wrap;html=1;strokeColor=#E07A5F;fontColor=#393C56;fillColor=#F2CC8F;" vertex="1" parent="gWoKqz0lpScKam20XCxX-42">
          <mxGeometry x="6608.073281596452" y="1614.620253164557" width="459.2461197339246" height="99.87341772151899" as="geometry" />
        </mxCell>
        <mxCell id="gWoKqz0lpScKam20XCxX-157" value="&lt;div style=&quot;color: rgb(212, 212, 212); background-color: rgb(30, 30, 30); font-family: Consolas, &amp;quot;Courier New&amp;quot;, monospace; font-size: 14px; line-height: 19px; white-space: pre;&quot;&gt;&lt;div style=&quot;line-height: 19px;&quot;&gt;&lt;div style=&quot;line-height: 19px;&quot;&gt;&lt;div style=&quot;line-height: 19px;&quot;&gt;&lt;span style=&quot;color: #569cd6;&quot;&gt;INSERT INTO&lt;/span&gt; &lt;span style=&quot;color: #ce9178;&quot;&gt;`climate_season`&lt;/span&gt;&lt;/div&gt;&lt;/div&gt;&lt;/div&gt;&lt;/div&gt;" style="shape=module;align=left;spacingLeft=20;align=center;verticalAlign=top;whiteSpace=wrap;html=1;strokeColor=#E07A5F;fontColor=#393C56;fillColor=#F2CC8F;" vertex="1" parent="gWoKqz0lpScKam20XCxX-42">
          <mxGeometry x="6608.073281596452" y="1747.7848101265822" width="459.2461197339246" height="99.87341772151899" as="geometry" />
        </mxCell>
        <mxCell id="gWoKqz0lpScKam20XCxX-158" value="&lt;div style=&quot;color: rgb(212, 212, 212); background-color: rgb(30, 30, 30); font-family: Consolas, &amp;quot;Courier New&amp;quot;, monospace; font-size: 14px; line-height: 19px; white-space: pre;&quot;&gt;&lt;div style=&quot;line-height: 19px;&quot;&gt;&lt;div style=&quot;line-height: 19px;&quot;&gt;&lt;div style=&quot;line-height: 19px;&quot;&gt;&lt;div style=&quot;line-height: 19px;&quot;&gt;&lt;span style=&quot;color: #569cd6;&quot;&gt;INSERT INTO&lt;/span&gt; ecosystem_category&lt;/div&gt;&lt;/div&gt;&lt;/div&gt;&lt;/div&gt;&lt;/div&gt;" style="shape=module;align=left;spacingLeft=20;align=center;verticalAlign=top;whiteSpace=wrap;html=1;strokeColor=#E07A5F;fontColor=#393C56;fillColor=#F2CC8F;" vertex="1" parent="gWoKqz0lpScKam20XCxX-42">
          <mxGeometry x="6579.370399113082" y="1897.5949367088608" width="516.6518847006652" height="99.87341772151899" as="geometry" />
        </mxCell>
        <mxCell id="gWoKqz0lpScKam20XCxX-159" value="&lt;div style=&quot;color: rgb(212, 212, 212); background-color: rgb(30, 30, 30); font-family: Consolas, &amp;quot;Courier New&amp;quot;, monospace; font-size: 14px; line-height: 19px; white-space: pre;&quot;&gt;&lt;div style=&quot;line-height: 19px;&quot;&gt;&lt;div style=&quot;line-height: 19px;&quot;&gt;&lt;div style=&quot;line-height: 19px;&quot;&gt;&lt;div style=&quot;line-height: 19px;&quot;&gt;&lt;span style=&quot;color: #569cd6;&quot;&gt;INSERT INTO&lt;/span&gt; agent&lt;/div&gt;&lt;/div&gt;&lt;/div&gt;&lt;/div&gt;&lt;/div&gt;" style="shape=module;align=left;spacingLeft=20;align=center;verticalAlign=top;whiteSpace=wrap;html=1;strokeColor=#E07A5F;fontColor=#393C56;fillColor=#F2CC8F;" vertex="1" parent="gWoKqz0lpScKam20XCxX-42">
          <mxGeometry x="6276.363636363637" y="2413.6075949367087" width="459.2461197339246" height="99.87341772151899" as="geometry" />
        </mxCell>
        <mxCell id="gWoKqz0lpScKam20XCxX-160" value="&lt;div style=&quot;color: rgb(212, 212, 212); background-color: rgb(30, 30, 30); font-family: Consolas, &amp;quot;Courier New&amp;quot;, monospace; font-size: 14px; line-height: 19px; white-space: pre;&quot;&gt;&lt;div style=&quot;line-height: 19px;&quot;&gt;&lt;div style=&quot;line-height: 19px;&quot;&gt;&lt;div style=&quot;line-height: 19px;&quot;&gt;&lt;div style=&quot;line-height: 19px;&quot;&gt;&lt;div style=&quot;line-height: 19px;&quot;&gt;&lt;span style=&quot;color: #569cd6;&quot;&gt;INSERT INTO&lt;/span&gt; eco_unit&lt;/div&gt;&lt;/div&gt;&lt;/div&gt;&lt;/div&gt;&lt;/div&gt;&lt;/div&gt;" style="shape=module;align=left;spacingLeft=20;align=center;verticalAlign=top;whiteSpace=wrap;html=1;strokeColor=#E07A5F;fontColor=#393C56;fillColor=#F2CC8F;" vertex="1" parent="gWoKqz0lpScKam20XCxX-42">
          <mxGeometry x="6563.39246119734" y="2591.0379746835442" width="459.2461197339246" height="99.87341772151899" as="geometry" />
        </mxCell>
        <mxCell id="gWoKqz0lpScKam20XCxX-162" value="&lt;div style=&quot;color: rgb(212, 212, 212); background-color: rgb(30, 30, 30); font-family: Consolas, &amp;quot;Courier New&amp;quot;, monospace; font-size: 14px; line-height: 19px; white-space: pre;&quot;&gt;&lt;div style=&quot;line-height: 19px;&quot;&gt;&lt;div style=&quot;line-height: 19px;&quot;&gt;&lt;div style=&quot;line-height: 19px;&quot;&gt;&lt;div style=&quot;line-height: 19px;&quot;&gt;&lt;div style=&quot;line-height: 19px;&quot;&gt;&lt;span style=&quot;color: #569cd6;&quot;&gt;UPDATE&lt;/span&gt; &lt;span style=&quot;color: #ce9178;&quot;&gt;`agent`&lt;/span&gt;&lt;/div&gt;&lt;/div&gt;&lt;/div&gt;&lt;/div&gt;&lt;/div&gt;&lt;/div&gt;" style="shape=module;align=left;spacingLeft=20;align=center;verticalAlign=top;whiteSpace=wrap;html=1;strokeColor=#E07A5F;fontColor=#393C56;fillColor=#F2CC8F;" vertex="1" parent="gWoKqz0lpScKam20XCxX-42">
          <mxGeometry x="6276.363636363637" y="3195.272151898734" width="459.2461197339246" height="99.87341772151899" as="geometry" />
        </mxCell>
        <mxCell id="gWoKqz0lpScKam20XCxX-164" value="&lt;div style=&quot;color: rgb(212, 212, 212); background-color: rgb(30, 30, 30); font-family: Consolas, &amp;quot;Courier New&amp;quot;, monospace; font-size: 14px; line-height: 19px; white-space: pre;&quot;&gt;&lt;div style=&quot;line-height: 19px;&quot;&gt;&lt;div style=&quot;line-height: 19px;&quot;&gt;&lt;div style=&quot;line-height: 19px;&quot;&gt;&lt;div style=&quot;line-height: 19px;&quot;&gt;&lt;div style=&quot;line-height: 19px;&quot;&gt;&lt;span style=&quot;color: #569cd6;&quot;&gt;INSERT INTO&lt;/span&gt; customer&lt;/div&gt;&lt;/div&gt;&lt;/div&gt;&lt;/div&gt;&lt;/div&gt;&lt;/div&gt;" style="shape=module;align=left;spacingLeft=20;align=center;verticalAlign=top;whiteSpace=wrap;html=1;strokeColor=#E07A5F;fontColor=#393C56;fillColor=#F2CC8F;" vertex="1" parent="gWoKqz0lpScKam20XCxX-42">
          <mxGeometry x="6563.39246119734" y="2777.46835443038" width="459.2461197339246" height="99.87341772151899" as="geometry" />
        </mxCell>
        <mxCell id="gWoKqz0lpScKam20XCxX-165" value="&lt;div style=&quot;color: rgb(212, 212, 212); background-color: rgb(30, 30, 30); font-family: Consolas, &amp;quot;Courier New&amp;quot;, monospace; font-size: 14px; line-height: 19px; white-space: pre;&quot;&gt;&lt;div style=&quot;line-height: 19px;&quot;&gt;&lt;div style=&quot;line-height: 19px;&quot;&gt;&lt;div style=&quot;line-height: 19px;&quot;&gt;&lt;div style=&quot;line-height: 19px;&quot;&gt;&lt;div style=&quot;line-height: 19px;&quot;&gt;&lt;span style=&quot;color: #569cd6;&quot;&gt;INSERT INTO&lt;/span&gt; back_user&lt;/div&gt;&lt;/div&gt;&lt;/div&gt;&lt;/div&gt;&lt;/div&gt;&lt;/div&gt;" style="shape=module;align=left;spacingLeft=20;align=center;verticalAlign=top;whiteSpace=wrap;html=1;strokeColor=#E07A5F;fontColor=#393C56;fillColor=#F2CC8F;" vertex="1" parent="gWoKqz0lpScKam20XCxX-42">
          <mxGeometry x="6563.39246119734" y="2922.284810126582" width="459.2461197339246" height="99.87341772151899" as="geometry" />
        </mxCell>
        <mxCell id="gWoKqz0lpScKam20XCxX-166" value="&lt;div style=&quot;color: rgb(212, 212, 212); background-color: rgb(30, 30, 30); font-family: Consolas, &amp;quot;Courier New&amp;quot;, monospace; font-size: 14px; line-height: 19px; white-space: pre;&quot;&gt;&lt;div style=&quot;line-height: 19px;&quot;&gt;&lt;div style=&quot;line-height: 19px;&quot;&gt;&lt;div style=&quot;line-height: 19px;&quot;&gt;&lt;div style=&quot;line-height: 19px;&quot;&gt;&lt;div style=&quot;line-height: 19px;&quot;&gt;&lt;span style=&quot;color: #569cd6;&quot;&gt;INSERT INTO&lt;/span&gt; agent_input&lt;/div&gt;&lt;/div&gt;&lt;/div&gt;&lt;/div&gt;&lt;/div&gt;&lt;/div&gt;" style="shape=module;align=left;spacingLeft=20;align=center;verticalAlign=top;whiteSpace=wrap;html=1;strokeColor=#E07A5F;fontColor=#393C56;fillColor=#F2CC8F;" vertex="1" parent="gWoKqz0lpScKam20XCxX-42">
          <mxGeometry x="6179.99620842572" y="3740.001012658228" width="459.2461197339246" height="99.87341772151899" as="geometry" />
        </mxCell>
        <mxCell id="gWoKqz0lpScKam20XCxX-167" value="&lt;div style=&quot;color: rgb(212, 212, 212); background-color: rgb(30, 30, 30); font-family: Consolas, &amp;quot;Courier New&amp;quot;, monospace; font-size: 14px; line-height: 19px; white-space: pre;&quot;&gt;&lt;div style=&quot;line-height: 19px;&quot;&gt;&lt;div style=&quot;line-height: 19px;&quot;&gt;&lt;div style=&quot;line-height: 19px;&quot;&gt;&lt;div style=&quot;line-height: 19px;&quot;&gt;&lt;div style=&quot;line-height: 19px;&quot;&gt;&lt;span style=&quot;color: #569cd6;&quot;&gt;INSERT INTO&lt;/span&gt; diagnostic&lt;/div&gt;&lt;/div&gt;&lt;/div&gt;&lt;/div&gt;&lt;/div&gt;&lt;/div&gt;" style="shape=module;align=left;spacingLeft=20;align=center;verticalAlign=top;whiteSpace=wrap;html=1;strokeColor=#E07A5F;fontColor=#393C56;fillColor=#F2CC8F;" vertex="1" parent="gWoKqz0lpScKam20XCxX-42">
          <mxGeometry x="6467.025033259423" y="3873.1655696202533" width="459.2461197339246" height="99.87341772151899" as="geometry" />
        </mxCell>
        <mxCell id="gWoKqz0lpScKam20XCxX-168" value="&lt;div style=&quot;color: rgb(212, 212, 212); background-color: rgb(30, 30, 30); font-family: Consolas, &amp;quot;Courier New&amp;quot;, monospace; font-size: 14px; line-height: 19px; white-space: pre;&quot;&gt;&lt;div style=&quot;line-height: 19px;&quot;&gt;&lt;div style=&quot;line-height: 19px;&quot;&gt;&lt;div style=&quot;line-height: 19px;&quot;&gt;&lt;div style=&quot;line-height: 19px;&quot;&gt;&lt;div style=&quot;line-height: 19px;&quot;&gt;&lt;span style=&quot;color: #569cd6;&quot;&gt;INSERT INTO&lt;/span&gt; configuration&lt;/div&gt;&lt;/div&gt;&lt;/div&gt;&lt;/div&gt;&lt;/div&gt;&lt;/div&gt;" style="shape=module;align=left;spacingLeft=20;align=center;verticalAlign=top;whiteSpace=wrap;html=1;strokeColor=#E07A5F;fontColor=#393C56;fillColor=#F2CC8F;" vertex="1" parent="gWoKqz0lpScKam20XCxX-42">
          <mxGeometry x="6467.025033259423" y="4136.165569620253" width="459.2461197339246" height="99.87341772151899" as="geometry" />
        </mxCell>
        <mxCell id="gWoKqz0lpScKam20XCxX-169" value="&lt;div style=&quot;color: rgb(212, 212, 212); background-color: rgb(30, 30, 30); font-family: Consolas, &amp;quot;Courier New&amp;quot;, monospace; font-size: 14px; line-height: 19px; white-space: pre;&quot;&gt;&lt;div style=&quot;line-height: 19px;&quot;&gt;&lt;div style=&quot;line-height: 19px;&quot;&gt;&lt;div style=&quot;line-height: 19px;&quot;&gt;&lt;div style=&quot;line-height: 19px;&quot;&gt;&lt;div style=&quot;line-height: 19px;&quot;&gt;&lt;span style=&quot;color: #569cd6;&quot;&gt;INSERT INTO&lt;/span&gt; environment_state&lt;/div&gt;&lt;/div&gt;&lt;/div&gt;&lt;/div&gt;&lt;/div&gt;&lt;/div&gt;" style="shape=module;align=left;spacingLeft=20;align=center;verticalAlign=top;whiteSpace=wrap;html=1;strokeColor=#E07A5F;fontColor=#393C56;fillColor=#F2CC8F;" vertex="1" parent="gWoKqz0lpScKam20XCxX-42">
          <mxGeometry x="6457.457405764967" y="4006.3301265822784" width="478.38137472283813" height="99.87341772151899" as="geometry" />
        </mxCell>
        <mxCell id="gWoKqz0lpScKam20XCxX-170" value="DB Abstraction" style="html=1;whiteSpace=wrap;fillColor=#bac8d3;strokeWidth=3;strokeColor=#23445d;" vertex="1" parent="gWoKqz0lpScKam20XCxX-42">
          <mxGeometry x="7292.445676274945" y="282.9746835443038" width="210.4878048780488" height="4710.696202531645" as="geometry" />
        </mxCell>
        <mxCell id="gWoKqz0lpScKam20XCxX-180" value="&lt;div style=&quot;line-height: 100%;&quot;&gt;&lt;font&gt;PopulateIndexTables[&quot;&quot;]&lt;/font&gt;&lt;/div&gt;" style="swimlane;fontStyle=1;align=center;verticalAlign=top;childLayout=stackLayout;horizontal=1;startSize=30;horizontalStack=0;resizeParent=1;resizeParentMax=0;resizeLast=0;collapsible=1;marginBottom=0;whiteSpace=wrap;html=1;fontColor=#2E17FF;fontSize=16;spacingBottom=0;movable=1;resizable=1;rotatable=1;deletable=1;editable=1;locked=0;connectable=1;labelPadding=0;swimlaneFillColor=none;rounded=0;fillColor=#6B6B6B;strokeWidth=3;strokeColor=#2E17FF;" vertex="1" parent="gWoKqz0lpScKam20XCxX-42">
          <mxGeometry x="5412.119844789357" y="1614.620253164557" width="478.38137472283813" height="229.74683544303798" as="geometry">
            <mxRectangle x="730" y="910" width="200" height="30" as="alternateBounds" />
          </mxGeometry>
        </mxCell>
        <mxCell id="gWoKqz0lpScKam20XCxX-181" value="+ field: type" style="text;strokeColor=none;fillColor=none;align=left;verticalAlign=top;spacingLeft=4;spacingRight=4;overflow=hidden;rotatable=0;points=[[0,0.5],[1,0.5]];portConstraint=eastwest;whiteSpace=wrap;html=1;fontColor=#2E17FF;rounded=0;" vertex="1" parent="gWoKqz0lpScKam20XCxX-180">
          <mxGeometry y="30" width="478.38137472283813" height="43.278481012658226" as="geometry" />
        </mxCell>
        <mxCell id="gWoKqz0lpScKam20XCxX-182" value="" style="line;strokeWidth=1;fillColor=none;align=left;verticalAlign=middle;spacingTop=-1;spacingLeft=3;spacingRight=3;rotatable=0;labelPosition=right;points=[];portConstraint=eastwest;strokeColor=inherit;rounded=0;" vertex="1" parent="gWoKqz0lpScKam20XCxX-180">
          <mxGeometry y="73.27848101265823" width="478.38137472283813" height="13.316455696202532" as="geometry" />
        </mxCell>
        <mxCell id="gWoKqz0lpScKam20XCxX-183" value="+ execute_strategies(type): type&lt;br&gt;&lt;div&gt;&lt;span style=&quot;background-color: initial;&quot;&gt;+ delegate_state_management(type): type&lt;/span&gt;&lt;/div&gt;&lt;div&gt;+ manage_sensor(type): type&lt;div&gt;+ manage_actuator(type): type&lt;br&gt;&lt;/div&gt;&lt;div&gt;+ handle_communication(type): type&lt;/div&gt;&lt;/div&gt;" style="text;strokeColor=none;fillColor=none;align=left;verticalAlign=top;spacingLeft=4;spacingRight=4;overflow=hidden;rotatable=0;points=[[0,0.5],[1,0.5]];portConstraint=eastwest;whiteSpace=wrap;html=1;fontColor=#2E17FF;rounded=0;" vertex="1" parent="gWoKqz0lpScKam20XCxX-180">
          <mxGeometry y="86.59493670886076" width="478.38137472283813" height="143.15189873417722" as="geometry" />
        </mxCell>
        <mxCell id="gWoKqz0lpScKam20XCxX-192" value="&lt;p style=&quot;margin:0px;margin-top:6px;text-align:center;&quot;&gt;&lt;b&gt;Authentication&lt;/b&gt;&lt;/p&gt;&lt;hr size=&quot;1&quot; style=&quot;border-style:solid;&quot;&gt;&lt;p style=&quot;margin:0px;margin-left:8px;&quot;&gt;+ session_id: UUID&lt;br&gt;+ agent_id: UUID&lt;/p&gt;" style="align=left;overflow=fill;html=1;dropTarget=0;whiteSpace=wrap;strokeColor=#2E17FF;fontColor=#393C56;fillColor=#FFFFFF;" vertex="1" parent="gWoKqz0lpScKam20XCxX-42">
          <mxGeometry x="3922.727272727273" y="529.3291139240506" width="401.84035476718407" height="357.87974683544303" as="geometry" />
        </mxCell>
        <mxCell id="gWoKqz0lpScKam20XCxX-193" value="" style="shape=component;jettyWidth=8;jettyHeight=4;strokeColor=#E07A5F;fontColor=#393C56;fillColor=#F2CC8F;" vertex="1" parent="gWoKqz0lpScKam20XCxX-192">
          <mxGeometry x="1" width="20" height="20" relative="1" as="geometry">
            <mxPoint x="-24" y="4" as="offset" />
          </mxGeometry>
        </mxCell>
        <mxCell id="gWoKqz0lpScKam20XCxX-194" value="&lt;b style=&quot;color: rgb(255, 255, 255); font-size: 30px;&quot;&gt;AUTH API&lt;/b&gt;" style="shape=umlFrame;whiteSpace=wrap;html=1;pointerEvents=0;strokeWidth=10;strokeColor=#2E17FF;dashed=1;align=center;width=299;height=60;rounded=0;" vertex="1" parent="gWoKqz0lpScKam20XCxX-42">
          <mxGeometry x="3827.050997782705" y="316.2658227848101" width="3367.8048780487807" height="930.4873417721519" as="geometry" />
        </mxCell>
        <mxCell id="gWoKqz0lpScKam20XCxX-225" style="edgeStyle=orthogonalEdgeStyle;orthogonalLoop=1;jettySize=auto;html=1;entryX=0.5;entryY=1;entryDx=0;entryDy=0;strokeColor=#E07A5F;fontColor=#393C56;fillColor=#F2CC8F;strokeWidth=3;" edge="1" parent="gWoKqz0lpScKam20XCxX-42" source="gWoKqz0lpScKam20XCxX-198" target="gWoKqz0lpScKam20XCxX-199">
          <mxGeometry relative="1" as="geometry" />
        </mxCell>
        <mxCell id="gWoKqz0lpScKam20XCxX-198" value="&lt;div style=&quot;box-sizing:border-box;width:100%;background:#e4e4e4;padding:2px;&quot;&gt;Agent&lt;/div&gt;&lt;table cellspacing=&quot;0&quot; cellpadding=&quot;2&quot; style=&quot;width: 100%;&quot;&gt;&lt;tbody&gt;&lt;tr&gt;&lt;td&gt;PK&lt;/td&gt;&lt;td&gt;uniqueId&lt;/td&gt;&lt;/tr&gt;&lt;tr&gt;&lt;td&gt;FK1&lt;/td&gt;&lt;td&gt;foreignKey&lt;/td&gt;&lt;/tr&gt;&lt;tr&gt;&lt;td&gt;&lt;/td&gt;&lt;td&gt;fieldname&lt;/td&gt;&lt;/tr&gt;&lt;/tbody&gt;&lt;/table&gt;" style="verticalAlign=top;align=left;overflow=fill;html=1;whiteSpace=wrap;strokeColor=#E07A5F;fontColor=#393C56;fillColor=#F2CC8F;fontSize=9;" vertex="1" parent="gWoKqz0lpScKam20XCxX-42">
          <mxGeometry x="7311.5809312638585" y="2014.113924050633" width="172.21729490022173" height="99.87341772151899" as="geometry" />
        </mxCell>
        <mxCell id="gWoKqz0lpScKam20XCxX-199" value="&lt;div style=&quot;box-sizing:border-box;width:100%;background:#e4e4e4;padding:2px;&quot;&gt;Agent_change_log&lt;/div&gt;&lt;table cellspacing=&quot;0&quot; cellpadding=&quot;2&quot; style=&quot;width: 100%;&quot;&gt;&lt;tbody&gt;&lt;tr&gt;&lt;td&gt;PK&lt;/td&gt;&lt;td&gt;uniqueId&lt;/td&gt;&lt;/tr&gt;&lt;tr&gt;&lt;td&gt;FK1&lt;/td&gt;&lt;td&gt;foreignKey&lt;/td&gt;&lt;/tr&gt;&lt;tr&gt;&lt;td&gt;&lt;/td&gt;&lt;td&gt;fieldname&lt;/td&gt;&lt;/tr&gt;&lt;/tbody&gt;&lt;/table&gt;" style="verticalAlign=top;align=left;overflow=fill;html=1;whiteSpace=wrap;strokeColor=#E07A5F;fontColor=#393C56;fillColor=#F2CC8F;fontSize=9;" vertex="1" parent="gWoKqz0lpScKam20XCxX-42">
          <mxGeometry x="7311.5809312638585" y="412.8101265822785" width="172.21729490022173" height="99.87341772151899" as="geometry" />
        </mxCell>
        <mxCell id="gWoKqz0lpScKam20XCxX-222" style="edgeStyle=orthogonalEdgeStyle;orthogonalLoop=1;jettySize=auto;html=1;entryX=0;entryY=0.5;entryDx=0;entryDy=0;strokeColor=#E07A5F;fontColor=#393C56;fillColor=#F2CC8F;strokeWidth=3;" edge="1" parent="gWoKqz0lpScKam20XCxX-42" source="gWoKqz0lpScKam20XCxX-202" target="gWoKqz0lpScKam20XCxX-199">
          <mxGeometry relative="1" as="geometry" />
        </mxCell>
        <mxCell id="gWoKqz0lpScKam20XCxX-202" value="&lt;div style=&quot;color: rgb(212, 212, 212); background-color: rgb(30, 30, 30); font-family: Consolas, &amp;quot;Courier New&amp;quot;, monospace; font-size: 14px; line-height: 19px; white-space: pre;&quot;&gt;&lt;div style=&quot;line-height: 19px;&quot;&gt;&lt;span style=&quot;color: #569cd6;&quot;&gt;SELECT FROM&lt;/span&gt; &lt;span style=&quot;color: #ce9178;&quot;&gt;agent_change_log&lt;/span&gt;&lt;/div&gt;&lt;/div&gt;" style="shape=module;align=left;spacingLeft=20;align=center;verticalAlign=top;whiteSpace=wrap;html=1;strokeColor=#E07A5F;fontColor=#393C56;fillColor=#F2CC8F;" vertex="1" parent="gWoKqz0lpScKam20XCxX-42">
          <mxGeometry x="6432.602993348116" y="412.8101265822785" width="459.2461197339246" height="99.87341772151899" as="geometry" />
        </mxCell>
        <mxCell id="gWoKqz0lpScKam20XCxX-204" value="&lt;b style=&quot;background-color: rgb(255, 255, 255);&quot;&gt;AGENT&lt;/b&gt;" style="image;aspect=fixed;perimeter=ellipsePerimeter;html=1;align=center;shadow=0;dashed=0;spacingTop=3;image=img/lib/active_directory/database.svg;strokeColor=#E07A5F;fontColor=#393C56;fillColor=#F2CC8F;" vertex="1" parent="gWoKqz0lpScKam20XCxX-42">
          <mxGeometry x="5510.953436807095" y="974.0987341772153" width="200.64569620253167" height="148.47848101265822" as="geometry" />
        </mxCell>
        <mxCell id="gWoKqz0lpScKam20XCxX-205" value="&lt;span style=&quot;background-color: rgb(255, 255, 255);&quot;&gt;&lt;b&gt;SESSION&lt;/b&gt;&lt;/span&gt;" style="image;aspect=fixed;perimeter=ellipsePerimeter;html=1;align=center;shadow=0;dashed=0;spacingTop=3;image=img/lib/active_directory/database.svg;strokeColor=#E07A5F;fontColor=#393C56;fillColor=#F2CC8F;" vertex="1" parent="gWoKqz0lpScKam20XCxX-42">
          <mxGeometry x="5185.654101995566" y="631.5329113924049" width="200.64569620253167" height="148.47848101265822" as="geometry" />
        </mxCell>
        <mxCell id="gWoKqz0lpScKam20XCxX-224" style="edgeStyle=orthogonalEdgeStyle;orthogonalLoop=1;jettySize=auto;html=1;entryX=0.25;entryY=0;entryDx=0;entryDy=0;strokeColor=#E07A5F;fontColor=#393C56;fillColor=#F2CC8F;strokeWidth=3;" edge="1" parent="gWoKqz0lpScKam20XCxX-42" source="gWoKqz0lpScKam20XCxX-206" target="gWoKqz0lpScKam20XCxX-198">
          <mxGeometry relative="1" as="geometry" />
        </mxCell>
        <mxCell id="gWoKqz0lpScKam20XCxX-206" value="&lt;div style=&quot;color: rgb(212, 212, 212); background-color: rgb(30, 30, 30); font-family: Consolas, &amp;quot;Courier New&amp;quot;, monospace; font-size: 14px; line-height: 19px; white-space: pre;&quot;&gt;&lt;div style=&quot;line-height: 19px;&quot;&gt;&lt;span style=&quot;color: #569cd6;&quot;&gt;SELECT FROM&lt;/span&gt; &lt;span style=&quot;color: #ce9178;&quot;&gt;ecosystem_db.agent&lt;/span&gt;&lt;/div&gt;&lt;/div&gt;" style="shape=module;align=left;spacingLeft=20;align=center;verticalAlign=top;whiteSpace=wrap;html=1;strokeColor=#E07A5F;fontColor=#393C56;fillColor=#F2CC8F;" vertex="1" parent="gWoKqz0lpScKam20XCxX-42">
          <mxGeometry x="5878.350332594235" y="752.379746835443" width="497.51662971175165" height="79.89873417721519" as="geometry" />
        </mxCell>
        <mxCell id="gWoKqz0lpScKam20XCxX-218" style="edgeStyle=orthogonalEdgeStyle;orthogonalLoop=1;jettySize=auto;html=1;entryX=0.5;entryY=0;entryDx=0;entryDy=0;strokeColor=#E07A5F;fontColor=#393C56;fillColor=#F2CC8F;strokeWidth=3;" edge="1" parent="gWoKqz0lpScKam20XCxX-42" source="gWoKqz0lpScKam20XCxX-207" target="gWoKqz0lpScKam20XCxX-211">
          <mxGeometry relative="1" as="geometry" />
        </mxCell>
        <mxCell id="gWoKqz0lpScKam20XCxX-207" value="&lt;font style=&quot;font-size: 15px;&quot;&gt;Listener&lt;/font&gt;" style="ellipse;shape=umlControl;whiteSpace=wrap;html=1;strokeColor=#E07A5F;fontColor=#393C56;fillColor=#F2CC8F;" vertex="1" parent="gWoKqz0lpScKam20XCxX-42">
          <mxGeometry x="6134.7627494456765" y="369.53164556962025" width="133.94678492239467" height="133.1645569620253" as="geometry" />
        </mxCell>
        <mxCell id="gWoKqz0lpScKam20XCxX-210" style="edgeStyle=orthogonalEdgeStyle;orthogonalLoop=1;jettySize=auto;html=1;entryX=0;entryY=0;entryDx=0;entryDy=15;entryPerimeter=0;strokeColor=#E07A5F;fontColor=#393C56;fillColor=#F2CC8F;strokeWidth=3;" edge="1" parent="gWoKqz0lpScKam20XCxX-42" source="gWoKqz0lpScKam20XCxX-207" target="gWoKqz0lpScKam20XCxX-202">
          <mxGeometry relative="1" as="geometry" />
        </mxCell>
        <mxCell id="gWoKqz0lpScKam20XCxX-211" value="New agent" style="rhombus;whiteSpace=wrap;html=1;fontColor=#000000;fillColor=#ffffc0;strokeColor=#ff0000;" vertex="1" parent="gWoKqz0lpScKam20XCxX-42">
          <mxGeometry x="5740.576496674058" y="569.2784810126582" width="153.08203991130821" height="66.58227848101265" as="geometry" />
        </mxCell>
        <mxCell id="gWoKqz0lpScKam20XCxX-212" value="no" style="edgeStyle=orthogonalEdgeStyle;html=1;align=left;verticalAlign=bottom;endArrow=open;endSize=8;strokeColor=#ff0000;fontColor=#393C56;fillColor=#F2CC8F;strokeWidth=3;" edge="1" source="gWoKqz0lpScKam20XCxX-211" parent="gWoKqz0lpScKam20XCxX-42">
          <mxGeometry x="-1" relative="1" as="geometry">
            <mxPoint x="6085.011086474501" y="602.5696202531645" as="targetPoint" />
          </mxGeometry>
        </mxCell>
        <mxCell id="gWoKqz0lpScKam20XCxX-213" value="yes" style="edgeStyle=orthogonalEdgeStyle;html=1;align=left;verticalAlign=top;endArrow=open;endSize=8;strokeColor=#ff0000;fontColor=#393C56;fillColor=#F2CC8F;entryX=0;entryY=0;entryDx=0;entryDy=15;entryPerimeter=0;strokeWidth=3;" edge="1" source="gWoKqz0lpScKam20XCxX-211" parent="gWoKqz0lpScKam20XCxX-42" target="gWoKqz0lpScKam20XCxX-206">
          <mxGeometry x="-1" relative="1" as="geometry">
            <mxPoint x="5817.117516629712" y="735.7341772151899" as="targetPoint" />
            <Array as="points" />
          </mxGeometry>
        </mxCell>
        <mxCell id="gWoKqz0lpScKam20XCxX-214" value="Wait(30)" style="rounded=1;whiteSpace=wrap;html=1;arcSize=40;fontColor=#000000;fillColor=#ffffc0;strokeColor=#ff0000;" vertex="1" parent="gWoKqz0lpScKam20XCxX-42">
          <mxGeometry x="6085.011086474501" y="569.2784810126582" width="229.6230598669623" height="66.58227848101265" as="geometry" />
        </mxCell>
        <mxCell id="gWoKqz0lpScKam20XCxX-217" style="edgeStyle=orthogonalEdgeStyle;orthogonalLoop=1;jettySize=auto;html=1;entryX=0.49;entryY=0.996;entryDx=0;entryDy=0;entryPerimeter=0;strokeColor=#E07A5F;fontColor=#393C56;fillColor=#F2CC8F;strokeWidth=3;" edge="1" parent="gWoKqz0lpScKam20XCxX-42" source="gWoKqz0lpScKam20XCxX-214" target="gWoKqz0lpScKam20XCxX-207">
          <mxGeometry relative="1" as="geometry" />
        </mxCell>
        <mxCell id="gWoKqz0lpScKam20XCxX-252" style="edgeStyle=orthogonalEdgeStyle;orthogonalLoop=1;jettySize=auto;html=1;entryX=0.5;entryY=1;entryDx=0;entryDy=0;strokeColor=#E07A5F;fontColor=#393C56;fillColor=#F2CC8F;exitX=1;exitY=0.75;exitDx=0;exitDy=0;strokeWidth=3;" edge="1" parent="gWoKqz0lpScKam20XCxX-42" source="gWoKqz0lpScKam20XCxX-219" target="gWoKqz0lpScKam20XCxX-204">
          <mxGeometry relative="1" as="geometry" />
        </mxCell>
        <mxCell id="gWoKqz0lpScKam20XCxX-219" value="&lt;div style=&quot;color: rgb(212, 212, 212); background-color: rgb(30, 30, 30); font-family: Consolas, &amp;quot;Courier New&amp;quot;, monospace; font-size: 14px; line-height: 19px; white-space: pre;&quot;&gt;&lt;div style=&quot;line-height: 19px;&quot;&gt;&lt;span style=&quot;color: #569cd6;&quot;&gt;UPDATE &lt;/span&gt;&lt;span style=&quot;color: #ce9178;&quot;&gt;auth_db.agent&lt;/span&gt;&lt;/div&gt;&lt;/div&gt;" style="shape=module;align=left;spacingLeft=20;align=center;verticalAlign=top;whiteSpace=wrap;html=1;strokeColor=#E07A5F;fontColor=#393C56;fillColor=#F2CC8F;" vertex="1" parent="gWoKqz0lpScKam20XCxX-42">
          <mxGeometry x="5868.7827050997785" y="887.2088607594936" width="497.51662971175165" height="78.23417721518987" as="geometry" />
        </mxCell>
        <mxCell id="gWoKqz0lpScKam20XCxX-220" style="edgeStyle=orthogonalEdgeStyle;orthogonalLoop=1;jettySize=auto;html=1;entryX=0;entryY=0;entryDx=0;entryDy=15;entryPerimeter=0;strokeColor=#E07A5F;fontColor=#393C56;fillColor=#F2CC8F;exitX=0;exitY=0;exitDx=0;exitDy=35;exitPerimeter=0;strokeWidth=3;" edge="1" parent="gWoKqz0lpScKam20XCxX-42" source="gWoKqz0lpScKam20XCxX-206" target="gWoKqz0lpScKam20XCxX-219">
          <mxGeometry relative="1" as="geometry" />
        </mxCell>
        <mxCell id="gWoKqz0lpScKam20XCxX-228" style="edgeStyle=orthogonalEdgeStyle;orthogonalLoop=1;jettySize=auto;html=1;entryX=0.5;entryY=1;entryDx=0;entryDy=0;strokeColor=#E07A5F;fontColor=#393C56;fillColor=#F2CC8F;strokeWidth=3;" edge="1" parent="gWoKqz0lpScKam20XCxX-42" source="gWoKqz0lpScKam20XCxX-162" target="gWoKqz0lpScKam20XCxX-198">
          <mxGeometry relative="1" as="geometry" />
        </mxCell>
        <mxCell id="gWoKqz0lpScKam20XCxX-226" style="edgeStyle=orthogonalEdgeStyle;orthogonalLoop=1;jettySize=auto;html=1;entryX=0;entryY=0.5;entryDx=0;entryDy=0;strokeColor=#E07A5F;fontColor=#393C56;fillColor=#F2CC8F;strokeWidth=3;" edge="1" parent="gWoKqz0lpScKam20XCxX-42" source="gWoKqz0lpScKam20XCxX-159" target="gWoKqz0lpScKam20XCxX-198">
          <mxGeometry relative="1" as="geometry" />
        </mxCell>
        <mxCell id="gWoKqz0lpScKam20XCxX-236" style="edgeStyle=orthogonalEdgeStyle;orthogonalLoop=1;jettySize=auto;html=1;entryX=0.5;entryY=0;entryDx=0;entryDy=0;strokeColor=#E07A5F;fontColor=#393C56;fillColor=#F2CC8F;strokeWidth=3;" edge="1" parent="gWoKqz0lpScKam20XCxX-42" source="gWoKqz0lpScKam20XCxX-232" target="gWoKqz0lpScKam20XCxX-233">
          <mxGeometry relative="1" as="geometry" />
        </mxCell>
        <mxCell id="gWoKqz0lpScKam20XCxX-248" style="edgeStyle=orthogonalEdgeStyle;orthogonalLoop=1;jettySize=auto;html=1;entryX=0.5;entryY=0;entryDx=0;entryDy=0;strokeColor=#E07A5F;fontColor=#393C56;fillColor=#F2CC8F;strokeWidth=3;" edge="1" parent="gWoKqz0lpScKam20XCxX-42" source="gWoKqz0lpScKam20XCxX-232" target="gWoKqz0lpScKam20XCxX-205">
          <mxGeometry relative="1" as="geometry" />
        </mxCell>
        <mxCell id="gWoKqz0lpScKam20XCxX-232" value="&lt;div style=&quot;color: rgb(212, 212, 212); background-color: rgb(30, 30, 30); font-family: Consolas, &amp;quot;Courier New&amp;quot;, monospace; font-size: 14px; line-height: 19px; white-space: pre;&quot;&gt;&lt;div style=&quot;line-height: 19px;&quot;&gt;&lt;span style=&quot;color: rgb(86, 156, 214);&quot;&gt;SELECT FROM&lt;/span&gt; &lt;span style=&quot;color: rgb(206, 145, 120);&quot;&gt;auth_db.session&lt;/span&gt;&lt;br&gt;&lt;/div&gt;&lt;/div&gt;" style="shape=module;align=left;spacingLeft=20;align=center;verticalAlign=top;whiteSpace=wrap;html=1;strokeColor=#E07A5F;fontColor=#393C56;fillColor=#F2CC8F;" vertex="1" parent="gWoKqz0lpScKam20XCxX-42">
          <mxGeometry x="4362.838137472284" y="559.2911392405064" width="497.51662971175165" height="79.89873417721519" as="geometry" />
        </mxCell>
        <mxCell id="gWoKqz0lpScKam20XCxX-233" value="session_id in sessions" style="rhombus;whiteSpace=wrap;html=1;fontColor=#000000;fillColor=#ffffc0;strokeColor=#ff0000;" vertex="1" parent="gWoKqz0lpScKam20XCxX-42">
          <mxGeometry x="4506.352549889135" y="852.253164556962" width="210.4878048780488" height="119.84810126582278" as="geometry" />
        </mxCell>
        <mxCell id="gWoKqz0lpScKam20XCxX-234" value="no" style="edgeStyle=orthogonalEdgeStyle;html=1;align=left;verticalAlign=bottom;endArrow=open;endSize=8;strokeColor=#ff0000;fontColor=#393C56;fillColor=#F2CC8F;entryX=0;entryY=0;entryDx=0;entryDy=15;entryPerimeter=0;strokeWidth=3;" edge="1" source="gWoKqz0lpScKam20XCxX-233" parent="gWoKqz0lpScKam20XCxX-42" target="gWoKqz0lpScKam20XCxX-240">
          <mxGeometry x="-1" relative="1" as="geometry">
            <mxPoint x="5109.113082039911" y="785.6708860759494" as="targetPoint" />
          </mxGeometry>
        </mxCell>
        <mxCell id="gWoKqz0lpScKam20XCxX-235" value="yes" style="edgeStyle=orthogonalEdgeStyle;html=1;align=left;verticalAlign=top;endArrow=open;endSize=8;strokeColor=#ff0000;fontColor=#393C56;fillColor=#F2CC8F;strokeWidth=3;" edge="1" source="gWoKqz0lpScKam20XCxX-233" parent="gWoKqz0lpScKam20XCxX-42" target="gWoKqz0lpScKam20XCxX-237">
          <mxGeometry x="-1" relative="1" as="geometry">
            <mxPoint x="4841.219512195122" y="918.8354430379746" as="targetPoint" />
          </mxGeometry>
        </mxCell>
        <mxCell id="gWoKqz0lpScKam20XCxX-237" value="&lt;font style=&quot;font-size: 20px;&quot; color=&quot;#569cd6&quot;&gt;&lt;b style=&quot;&quot;&gt;RETURN 202&lt;/b&gt;&lt;/font&gt;" style="shape=module;align=left;spacingLeft=20;align=center;verticalAlign=top;whiteSpace=wrap;html=1;strokeColor=#E07A5F;fontColor=#393C56;fillColor=#F2CC8F;" vertex="1" parent="gWoKqz0lpScKam20XCxX-42">
          <mxGeometry x="4429.811529933481" y="1094.945569620253" width="363.569844789357" height="66.58227848101265" as="geometry" />
        </mxCell>
        <mxCell id="gWoKqz0lpScKam20XCxX-246" style="edgeStyle=orthogonalEdgeStyle;orthogonalLoop=1;jettySize=auto;html=1;strokeColor=#E07A5F;fontColor=#393C56;fillColor=#F2CC8F;strokeWidth=3;" edge="1" parent="gWoKqz0lpScKam20XCxX-42" source="gWoKqz0lpScKam20XCxX-240" target="gWoKqz0lpScKam20XCxX-204">
          <mxGeometry relative="1" as="geometry" />
        </mxCell>
        <mxCell id="gWoKqz0lpScKam20XCxX-240" value="&lt;div style=&quot;color: rgb(212, 212, 212); background-color: rgb(30, 30, 30); font-family: Consolas, &amp;quot;Courier New&amp;quot;, monospace; font-size: 14px; line-height: 19px; white-space: pre;&quot;&gt;&lt;div style=&quot;line-height: 19px;&quot;&gt;&lt;span style=&quot;color: rgb(86, 156, 214);&quot;&gt;SELECT FROM&lt;/span&gt; &lt;span style=&quot;color: rgb(206, 145, 120);&quot;&gt;auth_db.agent&lt;/span&gt;&lt;br&gt;&lt;/div&gt;&lt;/div&gt;" style="shape=module;align=left;spacingLeft=20;align=center;verticalAlign=top;whiteSpace=wrap;html=1;strokeColor=#E07A5F;fontColor=#393C56;fillColor=#F2CC8F;" vertex="1" parent="gWoKqz0lpScKam20XCxX-42">
          <mxGeometry x="4956.031042128603" y="886.376582278481" width="497.51662971175165" height="79.89873417721519" as="geometry" />
        </mxCell>
        <mxCell id="gWoKqz0lpScKam20XCxX-242" value="&lt;font style=&quot;font-size: 20px;&quot; color=&quot;#569cd6&quot;&gt;&lt;b style=&quot;&quot;&gt;RETURN 202&lt;/b&gt;&lt;/font&gt;" style="shape=module;align=left;spacingLeft=20;align=center;verticalAlign=top;whiteSpace=wrap;html=1;strokeColor=#E07A5F;fontColor=#393C56;fillColor=#F2CC8F;" vertex="1" parent="gWoKqz0lpScKam20XCxX-42">
          <mxGeometry x="5023.0044345898" y="1008.7215189873417" width="363.569844789357" height="66.58227848101265" as="geometry" />
        </mxCell>
        <mxCell id="gWoKqz0lpScKam20XCxX-253" value="&lt;div style=&quot;line-height: 100%;&quot;&gt;&lt;font&gt;SelectView[&quot;&quot;]&lt;/font&gt;&lt;/div&gt;" style="swimlane;fontStyle=1;align=center;verticalAlign=top;childLayout=stackLayout;horizontal=1;startSize=30;horizontalStack=0;resizeParent=1;resizeParentMax=0;resizeLast=0;collapsible=1;marginBottom=0;whiteSpace=wrap;html=1;fontColor=#2E17FF;fontSize=16;spacingBottom=0;movable=1;resizable=1;rotatable=1;deletable=1;editable=1;locked=0;connectable=1;labelPadding=0;swimlaneFillColor=none;rounded=0;fillColor=#6B6B6B;strokeWidth=3;strokeColor=#2E17FF;" vertex="1" collapsed="1" parent="gWoKqz0lpScKam20XCxX-42">
          <mxGeometry x="5386.574279379158" y="5093.544303797468" width="382.7050997782705" height="49.936708860759495" as="geometry">
            <mxRectangle x="2795" y="2888.38" width="250" height="150" as="alternateBounds" />
          </mxGeometry>
        </mxCell>
        <mxCell id="gWoKqz0lpScKam20XCxX-254" value="+ field: type" style="text;strokeColor=none;fillColor=none;align=left;verticalAlign=top;spacingLeft=4;spacingRight=4;overflow=hidden;rotatable=0;points=[[0,0.5],[1,0.5]];portConstraint=eastwest;whiteSpace=wrap;html=1;fontColor=#2E17FF;rounded=0;" vertex="1" parent="gWoKqz0lpScKam20XCxX-253">
          <mxGeometry y="49.936708860759495" width="478.3813747228381" height="43.278481012658226" as="geometry" />
        </mxCell>
        <mxCell id="gWoKqz0lpScKam20XCxX-255" value="" style="line;strokeWidth=1;fillColor=none;align=left;verticalAlign=middle;spacingTop=-1;spacingLeft=3;spacingRight=3;rotatable=0;labelPosition=right;points=[];portConstraint=eastwest;strokeColor=inherit;rounded=0;" vertex="1" parent="gWoKqz0lpScKam20XCxX-253">
          <mxGeometry y="93.21518987341773" width="478.3813747228381" height="13.316455696202532" as="geometry" />
        </mxCell>
        <mxCell id="gWoKqz0lpScKam20XCxX-256" value="+ execute_strategies(type): type&lt;br&gt;&lt;div&gt;&lt;span style=&quot;background-color: initial;&quot;&gt;+ delegate_state_management(type): type&lt;/span&gt;&lt;/div&gt;&lt;div&gt;+ manage_sensor(type): type&lt;div&gt;+ manage_actuator(type): type&lt;br&gt;&lt;/div&gt;&lt;div&gt;+ handle_communication(type): type&lt;/div&gt;&lt;/div&gt;" style="text;strokeColor=none;fillColor=none;align=left;verticalAlign=top;spacingLeft=4;spacingRight=4;overflow=hidden;rotatable=0;points=[[0,0.5],[1,0.5]];portConstraint=eastwest;whiteSpace=wrap;html=1;fontColor=#2E17FF;rounded=0;" vertex="1" parent="gWoKqz0lpScKam20XCxX-253">
          <mxGeometry y="106.53164556962025" width="478.3813747228381" height="143.15189873417722" as="geometry" />
        </mxCell>
        <mxCell id="gWoKqz0lpScKam20XCxX-171" value="&lt;div style=&quot;line-height: 100%;&quot;&gt;&lt;font&gt;&amp;nbsp; &amp;nbsp;Controller[&quot;Controller&quot;]&lt;/font&gt;&lt;/div&gt;" style="swimlane;fontStyle=1;align=center;verticalAlign=top;childLayout=stackLayout;horizontal=1;startSize=30;horizontalStack=0;resizeParent=1;resizeParentMax=0;resizeLast=0;collapsible=1;marginBottom=0;whiteSpace=wrap;html=1;fontColor=#2E17FF;fontSize=16;spacingBottom=0;movable=1;resizable=1;rotatable=1;deletable=1;editable=1;locked=0;connectable=1;labelPadding=0;swimlaneFillColor=none;rounded=0;fillColor=#6B6B6B;strokeWidth=3;strokeColor=#2E17FF;" vertex="1" parent="gWoKqz0lpScKam20XCxX-42">
          <mxGeometry x="3915.0731707317073" y="2521.8037974683543" width="478.38137472283813" height="229.74683544303798" as="geometry">
            <mxRectangle x="730" y="910" width="200" height="30" as="alternateBounds" />
          </mxGeometry>
        </mxCell>
        <mxCell id="gWoKqz0lpScKam20XCxX-172" value="+ field: type" style="text;strokeColor=none;fillColor=none;align=left;verticalAlign=top;spacingLeft=4;spacingRight=4;overflow=hidden;rotatable=0;points=[[0,0.5],[1,0.5]];portConstraint=eastwest;whiteSpace=wrap;html=1;fontColor=#2E17FF;rounded=0;" vertex="1" parent="gWoKqz0lpScKam20XCxX-171">
          <mxGeometry y="30" width="478.38137472283813" height="43.278481012658226" as="geometry" />
        </mxCell>
        <mxCell id="gWoKqz0lpScKam20XCxX-173" value="" style="line;strokeWidth=1;fillColor=none;align=left;verticalAlign=middle;spacingTop=-1;spacingLeft=3;spacingRight=3;rotatable=0;labelPosition=right;points=[];portConstraint=eastwest;strokeColor=inherit;rounded=0;" vertex="1" parent="gWoKqz0lpScKam20XCxX-171">
          <mxGeometry y="73.27848101265823" width="478.38137472283813" height="13.316455696202532" as="geometry" />
        </mxCell>
        <mxCell id="gWoKqz0lpScKam20XCxX-174" value="+ execute_strategies(type): type&lt;br&gt;&lt;div&gt;&lt;span style=&quot;background-color: initial;&quot;&gt;+ delegate_state_management(type): type&lt;/span&gt;&lt;/div&gt;&lt;div&gt;+ manage_sensor(type): type&lt;div&gt;+ manage_actuator(type): type&lt;br&gt;&lt;/div&gt;&lt;div&gt;+ handle_communication(type): type&lt;/div&gt;&lt;/div&gt;" style="text;strokeColor=none;fillColor=none;align=left;verticalAlign=top;spacingLeft=4;spacingRight=4;overflow=hidden;rotatable=0;points=[[0,0.5],[1,0.5]];portConstraint=eastwest;whiteSpace=wrap;html=1;fontColor=#2E17FF;rounded=0;" vertex="1" parent="gWoKqz0lpScKam20XCxX-171">
          <mxGeometry y="86.59493670886076" width="478.38137472283813" height="143.15189873417722" as="geometry" />
        </mxCell>
        <mxCell id="gWoKqz0lpScKam20XCxX-298" value="" style="group" vertex="1" connectable="0" parent="gWoKqz0lpScKam20XCxX-42">
          <mxGeometry x="5281.330376940133" y="2101.1369620253163" width="612.3281596452329" height="1316.1984810126582" as="geometry" />
        </mxCell>
        <mxCell id="gWoKqz0lpScKam20XCxX-313" value="" style="group" vertex="1" connectable="0" parent="gWoKqz0lpScKam20XCxX-298">
          <mxGeometry x="-750.1019955654102" width="612.3281596452329" height="1316.1984810126582" as="geometry" />
        </mxCell>
        <mxCell id="gWoKqz0lpScKam20XCxX-257" value="&lt;font style=&quot;font-size: 20px;&quot;&gt;Â«interfaceÂ»&lt;br&gt;&lt;b style=&quot;&quot;&gt;CreateAgent&lt;/b&gt;&lt;/font&gt;" style="html=1;whiteSpace=wrap;strokeColor=#2E17FF;fontColor=#393C56;fillColor=#DEDEDE;strokeWidth=3;verticalAlign=top;" vertex="1" parent="gWoKqz0lpScKam20XCxX-313">
          <mxGeometry width="612.3281596452329" height="1316.1984810126582" as="geometry" />
        </mxCell>
        <mxCell id="gWoKqz0lpScKam20XCxX-184" value="&lt;div style=&quot;line-height: 100%;&quot;&gt;CreateBackUser[&quot;&quot;]&lt;br&gt;&lt;/div&gt;" style="swimlane;fontStyle=1;align=center;verticalAlign=top;childLayout=stackLayout;horizontal=1;startSize=30;horizontalStack=0;resizeParent=1;resizeParentMax=0;resizeLast=0;collapsible=1;marginBottom=0;whiteSpace=wrap;html=1;fontColor=#2E17FF;fontSize=16;spacingBottom=0;movable=1;resizable=1;rotatable=1;deletable=1;editable=1;locked=0;connectable=1;labelPadding=0;swimlaneFillColor=none;rounded=0;fillColor=#6B6B6B;strokeWidth=3;strokeColor=#2E17FF;" vertex="1" parent="gWoKqz0lpScKam20XCxX-313">
          <mxGeometry x="68.8869179600887" y="949.9959493670887" width="478.38137472283813" height="229.74683544303798" as="geometry">
            <mxRectangle x="36" y="570.72" width="200" height="30" as="alternateBounds" />
          </mxGeometry>
        </mxCell>
        <mxCell id="gWoKqz0lpScKam20XCxX-185" value="+ field: type" style="text;strokeColor=none;fillColor=none;align=left;verticalAlign=top;spacingLeft=4;spacingRight=4;overflow=hidden;rotatable=0;points=[[0,0.5],[1,0.5]];portConstraint=eastwest;whiteSpace=wrap;html=1;fontColor=#2E17FF;rounded=0;" vertex="1" parent="gWoKqz0lpScKam20XCxX-184">
          <mxGeometry y="30" width="478.38137472283813" height="43.278481012658226" as="geometry" />
        </mxCell>
        <mxCell id="gWoKqz0lpScKam20XCxX-186" value="" style="line;strokeWidth=1;fillColor=none;align=left;verticalAlign=middle;spacingTop=-1;spacingLeft=3;spacingRight=3;rotatable=0;labelPosition=right;points=[];portConstraint=eastwest;strokeColor=inherit;rounded=0;" vertex="1" parent="gWoKqz0lpScKam20XCxX-184">
          <mxGeometry y="73.27848101265823" width="478.38137472283813" height="13.316455696202532" as="geometry" />
        </mxCell>
        <mxCell id="gWoKqz0lpScKam20XCxX-187" value="+ execute_strategies(type): type&lt;br&gt;&lt;div&gt;&lt;span style=&quot;background-color: initial;&quot;&gt;+ delegate_state_management(type): type&lt;/span&gt;&lt;/div&gt;&lt;div&gt;+ manage_sensor(type): type&lt;div&gt;+ manage_actuator(type): type&lt;br&gt;&lt;/div&gt;&lt;div&gt;+ handle_communication(type): type&lt;/div&gt;&lt;/div&gt;" style="text;strokeColor=none;fillColor=none;align=left;verticalAlign=top;spacingLeft=4;spacingRight=4;overflow=hidden;rotatable=0;points=[[0,0.5],[1,0.5]];portConstraint=eastwest;whiteSpace=wrap;html=1;fontColor=#2E17FF;rounded=0;" vertex="1" parent="gWoKqz0lpScKam20XCxX-184">
          <mxGeometry y="86.59493670886076" width="478.38137472283813" height="143.15189873417722" as="geometry" />
        </mxCell>
        <mxCell id="gWoKqz0lpScKam20XCxX-258" value="&lt;div style=&quot;line-height: 100%;&quot;&gt;CreateCustomer[&quot;&quot;]&lt;br&gt;&lt;/div&gt;" style="swimlane;fontStyle=1;align=center;verticalAlign=top;childLayout=stackLayout;horizontal=1;startSize=30;horizontalStack=0;resizeParent=1;resizeParentMax=0;resizeLast=0;collapsible=1;marginBottom=0;whiteSpace=wrap;html=1;fontColor=#2E17FF;fontSize=16;spacingBottom=0;movable=1;resizable=1;rotatable=1;deletable=1;editable=1;locked=0;connectable=1;labelPadding=0;swimlaneFillColor=none;rounded=0;fillColor=#6B6B6B;strokeWidth=3;strokeColor=#2E17FF;" vertex="1" parent="gWoKqz0lpScKam20XCxX-313">
          <mxGeometry x="68.8869179600887" y="562.1541772151899" width="478.38137472283813" height="229.74683544303798" as="geometry">
            <mxRectangle x="730" y="910" width="200" height="30" as="alternateBounds" />
          </mxGeometry>
        </mxCell>
        <mxCell id="gWoKqz0lpScKam20XCxX-259" value="+ field: type" style="text;strokeColor=none;fillColor=none;align=left;verticalAlign=top;spacingLeft=4;spacingRight=4;overflow=hidden;rotatable=0;points=[[0,0.5],[1,0.5]];portConstraint=eastwest;whiteSpace=wrap;html=1;fontColor=#2E17FF;rounded=0;" vertex="1" parent="gWoKqz0lpScKam20XCxX-258">
          <mxGeometry y="30" width="478.38137472283813" height="43.278481012658226" as="geometry" />
        </mxCell>
        <mxCell id="gWoKqz0lpScKam20XCxX-260" value="" style="line;strokeWidth=1;fillColor=none;align=left;verticalAlign=middle;spacingTop=-1;spacingLeft=3;spacingRight=3;rotatable=0;labelPosition=right;points=[];portConstraint=eastwest;strokeColor=inherit;rounded=0;" vertex="1" parent="gWoKqz0lpScKam20XCxX-258">
          <mxGeometry y="73.27848101265823" width="478.38137472283813" height="13.316455696202532" as="geometry" />
        </mxCell>
        <mxCell id="gWoKqz0lpScKam20XCxX-261" value="+ execute_strategies(type): type&lt;br&gt;&lt;div&gt;&lt;span style=&quot;background-color: initial;&quot;&gt;+ delegate_state_management(type): type&lt;/span&gt;&lt;/div&gt;&lt;div&gt;+ manage_sensor(type): type&lt;div&gt;+ manage_actuator(type): type&lt;br&gt;&lt;/div&gt;&lt;div&gt;+ handle_communication(type): type&lt;/div&gt;&lt;/div&gt;" style="text;strokeColor=none;fillColor=none;align=left;verticalAlign=top;spacingLeft=4;spacingRight=4;overflow=hidden;rotatable=0;points=[[0,0.5],[1,0.5]];portConstraint=eastwest;whiteSpace=wrap;html=1;fontColor=#2E17FF;rounded=0;" vertex="1" parent="gWoKqz0lpScKam20XCxX-258">
          <mxGeometry y="86.59493670886076" width="478.38137472283813" height="143.15189873417722" as="geometry" />
        </mxCell>
        <mxCell id="gWoKqz0lpScKam20XCxX-262" value="&lt;div style=&quot;line-height: 100%;&quot;&gt;&lt;font&gt;CreateEcoUnit[&quot;&quot;]&lt;/font&gt;&lt;/div&gt;" style="swimlane;fontStyle=1;align=center;verticalAlign=top;childLayout=stackLayout;horizontal=1;startSize=30;horizontalStack=0;resizeParent=1;resizeParentMax=0;resizeLast=0;collapsible=1;marginBottom=0;whiteSpace=wrap;html=1;fontColor=#2E17FF;fontSize=16;spacingBottom=0;movable=1;resizable=1;rotatable=1;deletable=1;editable=1;locked=0;connectable=1;labelPadding=0;swimlaneFillColor=none;rounded=0;fillColor=#6B6B6B;strokeWidth=3;strokeColor=#2E17FF;" vertex="1" parent="gWoKqz0lpScKam20XCxX-313">
          <mxGeometry x="68.8869179600887" y="212.59721518987345" width="478.38137472283813" height="229.74683544303798" as="geometry">
            <mxRectangle x="730" y="910" width="200" height="30" as="alternateBounds" />
          </mxGeometry>
        </mxCell>
        <mxCell id="gWoKqz0lpScKam20XCxX-263" value="+ field: type" style="text;strokeColor=none;fillColor=none;align=left;verticalAlign=top;spacingLeft=4;spacingRight=4;overflow=hidden;rotatable=0;points=[[0,0.5],[1,0.5]];portConstraint=eastwest;whiteSpace=wrap;html=1;fontColor=#2E17FF;rounded=0;" vertex="1" parent="gWoKqz0lpScKam20XCxX-262">
          <mxGeometry y="30" width="478.38137472283813" height="43.278481012658226" as="geometry" />
        </mxCell>
        <mxCell id="gWoKqz0lpScKam20XCxX-264" value="" style="line;strokeWidth=1;fillColor=none;align=left;verticalAlign=middle;spacingTop=-1;spacingLeft=3;spacingRight=3;rotatable=0;labelPosition=right;points=[];portConstraint=eastwest;strokeColor=inherit;rounded=0;" vertex="1" parent="gWoKqz0lpScKam20XCxX-262">
          <mxGeometry y="73.27848101265823" width="478.38137472283813" height="13.316455696202532" as="geometry" />
        </mxCell>
        <mxCell id="gWoKqz0lpScKam20XCxX-265" value="+ execute_strategies(type): type&lt;br&gt;&lt;div&gt;&lt;span style=&quot;background-color: initial;&quot;&gt;+ delegate_state_management(type): type&lt;/span&gt;&lt;/div&gt;&lt;div&gt;+ manage_sensor(type): type&lt;div&gt;+ manage_actuator(type): type&lt;br&gt;&lt;/div&gt;&lt;div&gt;+ handle_communication(type): type&lt;/div&gt;&lt;/div&gt;" style="text;strokeColor=none;fillColor=none;align=left;verticalAlign=top;spacingLeft=4;spacingRight=4;overflow=hidden;rotatable=0;points=[[0,0.5],[1,0.5]];portConstraint=eastwest;whiteSpace=wrap;html=1;fontColor=#2E17FF;rounded=0;" vertex="1" parent="gWoKqz0lpScKam20XCxX-262">
          <mxGeometry y="86.59493670886076" width="478.38137472283813" height="143.15189873417722" as="geometry" />
        </mxCell>
        <mxCell id="gWoKqz0lpScKam20XCxX-269" style="edgeStyle=orthogonalEdgeStyle;orthogonalLoop=1;jettySize=auto;html=1;entryX=0;entryY=0;entryDx=0;entryDy=15;entryPerimeter=0;strokeColor=#E07A5F;fontColor=#393C56;fillColor=#F2CC8F;strokeWidth=3;exitX=0.996;exitY=0.115;exitDx=0;exitDy=0;exitPerimeter=0;" edge="1" parent="gWoKqz0lpScKam20XCxX-298" source="gWoKqz0lpScKam20XCxX-261">
          <mxGeometry relative="1" as="geometry">
            <mxPoint x="-191.35254988913525" y="685.3313924050633" as="sourcePoint" />
            <mxPoint x="985.4656319290466" y="335.7744303797469" as="targetPoint" />
            <Array as="points">
              <mxPoint x="-38.270509977827054" y="685.7974683544304" />
              <mxPoint x="-38.270509977827054" y="336.24050632911394" />
            </Array>
          </mxGeometry>
        </mxCell>
        <mxCell id="gWoKqz0lpScKam20XCxX-299" value="" style="group" vertex="1" connectable="0" parent="gWoKqz0lpScKam20XCxX-42">
          <mxGeometry x="5281.330376940133" y="3445.632911392405" width="612.33" height="1597.9746835443038" as="geometry" />
        </mxCell>
        <mxCell id="gWoKqz0lpScKam20XCxX-300" value="&lt;font style=&quot;font-size: 20px;&quot;&gt;Â«interfaceÂ»&lt;br&gt;&lt;b style=&quot;&quot;&gt;AgentInput&lt;/b&gt;&lt;/font&gt;" style="html=1;whiteSpace=wrap;strokeColor=#2E17FF;fontColor=#393C56;fillColor=#DEDEDE;strokeWidth=3;verticalAlign=top;" vertex="1" parent="gWoKqz0lpScKam20XCxX-299">
          <mxGeometry width="612.33" height="1597.97" as="geometry" />
        </mxCell>
        <mxCell id="gWoKqz0lpScKam20XCxX-318" value="&lt;font style=&quot;font-size: 20px;&quot;&gt;Â«interfaceÂ»&lt;br&gt;&lt;b style=&quot;&quot;&gt;EcoUnitInput&lt;/b&gt;&lt;/font&gt;" style="html=1;whiteSpace=wrap;strokeColor=#2E17FF;fontColor=#393C56;fillColor=#DEDEDE;strokeWidth=3;verticalAlign=top;" vertex="1" parent="gWoKqz0lpScKam20XCxX-299">
          <mxGeometry x="40" y="99.87" width="534.06" height="760.13" as="geometry" />
        </mxCell>
        <mxCell id="gWoKqz0lpScKam20XCxX-309" value="&lt;div style=&quot;line-height: 100%;&quot;&gt;&lt;font&gt;&amp;nbsp; &amp;nbsp; report_diagnostics[&quot;&quot;]&lt;/font&gt;&lt;/div&gt;" style="swimlane;fontStyle=1;align=center;verticalAlign=top;childLayout=stackLayout;horizontal=1;startSize=30;horizontalStack=0;resizeParent=1;resizeParentMax=0;resizeLast=0;collapsible=1;marginBottom=0;whiteSpace=wrap;html=1;fontColor=#2E17FF;fontSize=16;spacingBottom=0;movable=1;resizable=1;rotatable=1;deletable=1;editable=1;locked=0;connectable=1;labelPadding=0;swimlaneFillColor=none;rounded=0;fillColor=#6B6B6B;strokeWidth=3;strokeColor=#2E17FF;" vertex="1" collapsed="1" parent="gWoKqz0lpScKam20XCxX-299">
          <mxGeometry x="66.97339246119734" y="284.36721518987343" width="382.7050997782705" height="49.936708860759495" as="geometry">
            <mxRectangle x="35" y="127.72000000000003" width="250" height="150" as="alternateBounds" />
          </mxGeometry>
        </mxCell>
        <mxCell id="gWoKqz0lpScKam20XCxX-310" value="+ field: type" style="text;strokeColor=none;fillColor=none;align=left;verticalAlign=top;spacingLeft=4;spacingRight=4;overflow=hidden;rotatable=0;points=[[0,0.5],[1,0.5]];portConstraint=eastwest;whiteSpace=wrap;html=1;fontColor=#2E17FF;rounded=0;" vertex="1" parent="gWoKqz0lpScKam20XCxX-309">
          <mxGeometry y="49.936708860759495" width="478.3813747228381" height="43.278481012658226" as="geometry" />
        </mxCell>
        <mxCell id="gWoKqz0lpScKam20XCxX-311" value="" style="line;strokeWidth=1;fillColor=none;align=left;verticalAlign=middle;spacingTop=-1;spacingLeft=3;spacingRight=3;rotatable=0;labelPosition=right;points=[];portConstraint=eastwest;strokeColor=inherit;rounded=0;" vertex="1" parent="gWoKqz0lpScKam20XCxX-309">
          <mxGeometry y="93.21518987341773" width="478.3813747228381" height="13.316455696202532" as="geometry" />
        </mxCell>
        <mxCell id="gWoKqz0lpScKam20XCxX-312" value="+ execute_strategies(type): type&lt;br&gt;&lt;div&gt;&lt;span style=&quot;background-color: initial;&quot;&gt;+ delegate_state_management(type): type&lt;/span&gt;&lt;/div&gt;&lt;div&gt;+ manage_sensor(type): type&lt;div&gt;+ manage_actuator(type): type&lt;br&gt;&lt;/div&gt;&lt;div&gt;+ handle_communication(type): type&lt;/div&gt;&lt;/div&gt;" style="text;strokeColor=none;fillColor=none;align=left;verticalAlign=top;spacingLeft=4;spacingRight=4;overflow=hidden;rotatable=0;points=[[0,0.5],[1,0.5]];portConstraint=eastwest;whiteSpace=wrap;html=1;fontColor=#2E17FF;rounded=0;" vertex="1" parent="gWoKqz0lpScKam20XCxX-309">
          <mxGeometry y="106.53164556962025" width="478.3813747228381" height="143.15189873417722" as="geometry" />
        </mxCell>
        <mxCell id="gWoKqz0lpScKam20XCxX-330" value="" style="group" vertex="1" connectable="0" parent="gWoKqz0lpScKam20XCxX-299">
          <mxGeometry x="-708.0044345898004" y="1165.1898734177214" width="1282.0620842572062" height="420" as="geometry" />
        </mxCell>
        <mxCell id="gWoKqz0lpScKam20XCxX-321" value="&lt;font style=&quot;font-size: 20px;&quot;&gt;Â«interfaceÂ»&lt;br&gt;&lt;b style=&quot;&quot;&gt;BackUserInput&lt;/b&gt;&lt;/font&gt;" style="html=1;whiteSpace=wrap;strokeColor=#2E17FF;fontColor=#393C56;fillColor=#DEDEDE;strokeWidth=3;verticalAlign=top;" vertex="1" parent="gWoKqz0lpScKam20XCxX-330">
          <mxGeometry x="740" y="233.04" width="542.06" height="186.96" as="geometry" />
        </mxCell>
        <mxCell id="gWoKqz0lpScKam20XCxX-301" value="&lt;div style=&quot;line-height: 100%;&quot;&gt;&lt;span style=&quot;background-color: initial;&quot;&gt;ClassName&lt;/span&gt;[&quot;&quot;]&lt;br&gt;&lt;/div&gt;" style="swimlane;fontStyle=1;align=center;verticalAlign=top;childLayout=stackLayout;horizontal=1;startSize=30;horizontalStack=0;resizeParent=1;resizeParentMax=0;resizeLast=0;collapsible=1;marginBottom=0;whiteSpace=wrap;html=1;fontColor=#2E17FF;fontSize=16;spacingBottom=0;movable=1;resizable=1;rotatable=1;deletable=1;editable=1;locked=0;connectable=1;labelPadding=0;swimlaneFillColor=none;rounded=0;fillColor=#6B6B6B;strokeWidth=3;strokeColor=#2E17FF;" vertex="1" collapsed="1" parent="gWoKqz0lpScKam20XCxX-330">
          <mxGeometry x="841.951219512195" y="332.9113924050633" width="382.7050997782705" height="49.936708860759495" as="geometry">
            <mxRectangle x="405" y="60" width="250" height="150" as="alternateBounds" />
          </mxGeometry>
        </mxCell>
        <mxCell id="gWoKqz0lpScKam20XCxX-302" value="+ field: type" style="text;strokeColor=none;fillColor=none;align=left;verticalAlign=top;spacingLeft=4;spacingRight=4;overflow=hidden;rotatable=0;points=[[0,0.5],[1,0.5]];portConstraint=eastwest;whiteSpace=wrap;html=1;fontColor=#2E17FF;rounded=0;" vertex="1" parent="gWoKqz0lpScKam20XCxX-301">
          <mxGeometry y="49.936708860759495" width="478.3813747228381" height="43.278481012658226" as="geometry" />
        </mxCell>
        <mxCell id="gWoKqz0lpScKam20XCxX-303" value="" style="line;strokeWidth=1;fillColor=none;align=left;verticalAlign=middle;spacingTop=-1;spacingLeft=3;spacingRight=3;rotatable=0;labelPosition=right;points=[];portConstraint=eastwest;strokeColor=inherit;rounded=0;" vertex="1" parent="gWoKqz0lpScKam20XCxX-301">
          <mxGeometry y="93.21518987341773" width="478.3813747228381" height="13.316455696202532" as="geometry" />
        </mxCell>
        <mxCell id="gWoKqz0lpScKam20XCxX-304" value="+ execute_strategies(type): type&lt;br&gt;&lt;div&gt;&lt;span style=&quot;background-color: initial;&quot;&gt;+ delegate_state_management(type): type&lt;/span&gt;&lt;/div&gt;&lt;div&gt;+ manage_sensor(type): type&lt;div&gt;+ manage_actuator(type): type&lt;br&gt;&lt;/div&gt;&lt;div&gt;+ handle_communication(type): type&lt;/div&gt;&lt;/div&gt;" style="text;strokeColor=none;fillColor=none;align=left;verticalAlign=top;spacingLeft=4;spacingRight=4;overflow=hidden;rotatable=0;points=[[0,0.5],[1,0.5]];portConstraint=eastwest;whiteSpace=wrap;html=1;fontColor=#2E17FF;rounded=0;" vertex="1" parent="gWoKqz0lpScKam20XCxX-301">
          <mxGeometry y="106.53164556962025" width="478.3813747228381" height="143.15189873417722" as="geometry" />
        </mxCell>
        <mxCell id="gWoKqz0lpScKam20XCxX-329" value="" style="group" vertex="1" connectable="0" parent="gWoKqz0lpScKam20XCxX-299">
          <mxGeometry x="-708.0044345898004" y="549.3037974683544" width="1282.0620842572062" height="832.2784810126582" as="geometry" />
        </mxCell>
        <mxCell id="gWoKqz0lpScKam20XCxX-323" value="&lt;font style=&quot;font-size: 20px;&quot;&gt;Â«interfaceÂ»&lt;br&gt;&lt;b style=&quot;&quot;&gt;CustomerInput&lt;/b&gt;&lt;/font&gt;" style="html=1;whiteSpace=wrap;strokeColor=#2E17FF;fontColor=#393C56;fillColor=#DEDEDE;strokeWidth=3;verticalAlign=top;" vertex="1" parent="gWoKqz0lpScKam20XCxX-329">
          <mxGeometry x="740" y="660" width="542.06" height="172.27" as="geometry" />
        </mxCell>
        <mxCell id="gWoKqz0lpScKam20XCxX-324" value="&lt;div style=&quot;line-height: 100%;&quot;&gt;ClassName[&quot;&quot;]&lt;br&gt;&lt;/div&gt;" style="swimlane;fontStyle=1;align=center;verticalAlign=top;childLayout=stackLayout;horizontal=1;startSize=30;horizontalStack=0;resizeParent=1;resizeParentMax=0;resizeLast=0;collapsible=1;marginBottom=0;whiteSpace=wrap;html=1;fontColor=#2E17FF;fontSize=16;spacingBottom=0;movable=1;resizable=1;rotatable=1;deletable=1;editable=1;locked=0;connectable=1;labelPadding=0;swimlaneFillColor=none;rounded=0;fillColor=#6B6B6B;strokeWidth=3;strokeColor=#2E17FF;" vertex="1" collapsed="1" parent="gWoKqz0lpScKam20XCxX-329">
          <mxGeometry x="841.951219512195" y="749.0444678856071" width="382.7050997782705" height="49.936708860759495" as="geometry">
            <mxRectangle x="410" y="119.9962962962963" width="250" height="158.88888888888886" as="alternateBounds" />
          </mxGeometry>
        </mxCell>
        <mxCell id="gWoKqz0lpScKam20XCxX-325" value="+ field: type" style="text;strokeColor=none;fillColor=none;align=left;verticalAlign=top;spacingLeft=4;spacingRight=4;overflow=hidden;rotatable=0;points=[[0,0.5],[1,0.5]];portConstraint=eastwest;whiteSpace=wrap;html=1;fontColor=#2E17FF;rounded=0;" vertex="1" parent="gWoKqz0lpScKam20XCxX-324">
          <mxGeometry y="49.936708860759495" width="478.3813747228381" height="46.48429442100328" as="geometry" />
        </mxCell>
        <mxCell id="gWoKqz0lpScKam20XCxX-326" value="" style="line;strokeWidth=1;fillColor=none;align=left;verticalAlign=middle;spacingTop=-1;spacingLeft=3;spacingRight=3;rotatable=0;labelPosition=right;points=[];portConstraint=eastwest;strokeColor=inherit;rounded=0;" vertex="1" parent="gWoKqz0lpScKam20XCxX-324">
          <mxGeometry y="96.42100328176276" width="478.3813747228381" height="14.302859821847163" as="geometry" />
        </mxCell>
        <mxCell id="gWoKqz0lpScKam20XCxX-327" value="+ execute_strategies(type): type&lt;br&gt;&lt;div&gt;&lt;span style=&quot;background-color: initial;&quot;&gt;+ delegate_state_management(type): type&lt;/span&gt;&lt;/div&gt;&lt;div&gt;+ manage_sensor(type): type&lt;div&gt;+ manage_actuator(type): type&lt;br&gt;&lt;/div&gt;&lt;div&gt;+ handle_communication(type): type&lt;/div&gt;&lt;/div&gt;" style="text;strokeColor=none;fillColor=none;align=left;verticalAlign=top;spacingLeft=4;spacingRight=4;overflow=hidden;rotatable=0;points=[[0,0.5],[1,0.5]];portConstraint=eastwest;whiteSpace=wrap;html=1;fontColor=#2E17FF;rounded=0;" vertex="1" parent="gWoKqz0lpScKam20XCxX-324">
          <mxGeometry y="110.72386310360994" width="478.3813747228381" height="153.755743084857" as="geometry" />
        </mxCell>
        <mxCell id="gWoKqz0lpScKam20XCxX-331" value="&lt;div style=&quot;line-height: 100%;&quot;&gt;&lt;font&gt;&amp;nbsp; &amp;nbsp; report_config[&quot;&quot;]&lt;/font&gt;&lt;/div&gt;" style="swimlane;fontStyle=1;align=center;verticalAlign=top;childLayout=stackLayout;horizontal=1;startSize=30;horizontalStack=0;resizeParent=1;resizeParentMax=0;resizeLast=0;collapsible=1;marginBottom=0;whiteSpace=wrap;html=1;fontColor=#2E17FF;fontSize=16;spacingBottom=0;movable=1;resizable=1;rotatable=1;deletable=1;editable=1;locked=0;connectable=1;labelPadding=0;swimlaneFillColor=none;rounded=0;fillColor=#6B6B6B;strokeWidth=3;strokeColor=#2E17FF;" vertex="1" collapsed="1" parent="gWoKqz0lpScKam20XCxX-329">
          <mxGeometry x="776.6778270509977" y="155.06430379746917" width="382.7050997782705" height="49.936708860759495" as="geometry">
            <mxRectangle x="35" y="127.72000000000003" width="250" height="150" as="alternateBounds" />
          </mxGeometry>
        </mxCell>
        <mxCell id="gWoKqz0lpScKam20XCxX-332" value="+ field: type" style="text;strokeColor=none;fillColor=none;align=left;verticalAlign=top;spacingLeft=4;spacingRight=4;overflow=hidden;rotatable=0;points=[[0,0.5],[1,0.5]];portConstraint=eastwest;whiteSpace=wrap;html=1;fontColor=#2E17FF;rounded=0;" vertex="1" parent="gWoKqz0lpScKam20XCxX-331">
          <mxGeometry y="49.936708860759495" width="478.3813747228381" height="43.278481012658226" as="geometry" />
        </mxCell>
        <mxCell id="gWoKqz0lpScKam20XCxX-333" value="" style="line;strokeWidth=1;fillColor=none;align=left;verticalAlign=middle;spacingTop=-1;spacingLeft=3;spacingRight=3;rotatable=0;labelPosition=right;points=[];portConstraint=eastwest;strokeColor=inherit;rounded=0;" vertex="1" parent="gWoKqz0lpScKam20XCxX-331">
          <mxGeometry y="93.21518987341773" width="478.3813747228381" height="13.316455696202532" as="geometry" />
        </mxCell>
        <mxCell id="gWoKqz0lpScKam20XCxX-334" value="+ execute_strategies(type): type&lt;br&gt;&lt;div&gt;&lt;span style=&quot;background-color: initial;&quot;&gt;+ delegate_state_management(type): type&lt;/span&gt;&lt;/div&gt;&lt;div&gt;+ manage_sensor(type): type&lt;div&gt;+ manage_actuator(type): type&lt;br&gt;&lt;/div&gt;&lt;div&gt;+ handle_communication(type): type&lt;/div&gt;&lt;/div&gt;" style="text;strokeColor=none;fillColor=none;align=left;verticalAlign=top;spacingLeft=4;spacingRight=4;overflow=hidden;rotatable=0;points=[[0,0.5],[1,0.5]];portConstraint=eastwest;whiteSpace=wrap;html=1;fontColor=#2E17FF;rounded=0;" vertex="1" parent="gWoKqz0lpScKam20XCxX-331">
          <mxGeometry y="106.53164556962025" width="478.3813747228381" height="143.15189873417722" as="geometry" />
        </mxCell>
        <mxCell id="gWoKqz0lpScKam20XCxX-336" value="&lt;div style=&quot;line-height: 100%;&quot;&gt;&lt;font&gt;&amp;nbsp; &amp;nbsp; report_env_state[&quot;&quot;]&lt;/font&gt;&lt;/div&gt;" style="swimlane;fontStyle=1;align=center;verticalAlign=top;childLayout=stackLayout;horizontal=1;startSize=30;horizontalStack=0;resizeParent=1;resizeParentMax=0;resizeLast=0;collapsible=1;marginBottom=0;whiteSpace=wrap;html=1;fontColor=#2E17FF;fontSize=16;spacingBottom=0;movable=1;resizable=1;rotatable=1;deletable=1;editable=1;locked=0;connectable=1;labelPadding=0;swimlaneFillColor=none;rounded=0;fillColor=#6B6B6B;strokeWidth=3;strokeColor=#2E17FF;" vertex="1" collapsed="1" parent="gWoKqz0lpScKam20XCxX-299">
          <mxGeometry x="66.97339246119734" y="484.3702531645577" width="382.7050997782705" height="49.936708860759495" as="geometry">
            <mxRectangle x="35" y="127.72000000000003" width="250" height="150" as="alternateBounds" />
          </mxGeometry>
        </mxCell>
        <mxCell id="gWoKqz0lpScKam20XCxX-337" value="+ field: type" style="text;strokeColor=none;fillColor=none;align=left;verticalAlign=top;spacingLeft=4;spacingRight=4;overflow=hidden;rotatable=0;points=[[0,0.5],[1,0.5]];portConstraint=eastwest;whiteSpace=wrap;html=1;fontColor=#2E17FF;rounded=0;" vertex="1" parent="gWoKqz0lpScKam20XCxX-336">
          <mxGeometry y="49.936708860759495" width="478.3813747228381" height="43.278481012658226" as="geometry" />
        </mxCell>
        <mxCell id="gWoKqz0lpScKam20XCxX-338" value="" style="line;strokeWidth=1;fillColor=none;align=left;verticalAlign=middle;spacingTop=-1;spacingLeft=3;spacingRight=3;rotatable=0;labelPosition=right;points=[];portConstraint=eastwest;strokeColor=inherit;rounded=0;" vertex="1" parent="gWoKqz0lpScKam20XCxX-336">
          <mxGeometry y="93.21518987341773" width="478.3813747228381" height="13.316455696202532" as="geometry" />
        </mxCell>
        <mxCell id="gWoKqz0lpScKam20XCxX-339" value="+ execute_strategies(type): type&lt;br&gt;&lt;div&gt;&lt;span style=&quot;background-color: initial;&quot;&gt;+ delegate_state_management(type): type&lt;/span&gt;&lt;/div&gt;&lt;div&gt;+ manage_sensor(type): type&lt;div&gt;+ manage_actuator(type): type&lt;br&gt;&lt;/div&gt;&lt;div&gt;+ handle_communication(type): type&lt;/div&gt;&lt;/div&gt;" style="text;strokeColor=none;fillColor=none;align=left;verticalAlign=top;spacingLeft=4;spacingRight=4;overflow=hidden;rotatable=0;points=[[0,0.5],[1,0.5]];portConstraint=eastwest;whiteSpace=wrap;html=1;fontColor=#2E17FF;rounded=0;" vertex="1" parent="gWoKqz0lpScKam20XCxX-336">
          <mxGeometry y="106.53164556962025" width="478.3813747228381" height="143.15189873417722" as="geometry" />
        </mxCell>
        <mxCell id="gWoKqz0lpScKam20XCxX-315" style="edgeStyle=orthogonalEdgeStyle;orthogonalLoop=1;jettySize=auto;html=1;exitX=1.001;exitY=0.317;exitDx=0;exitDy=0;entryX=0;entryY=0;entryDx=0;entryDy=15;entryPerimeter=0;strokeColor=#E07A5F;fontColor=#393C56;fillColor=#F2CC8F;strokeWidth=3;exitPerimeter=0;" edge="1" parent="gWoKqz0lpScKam20XCxX-42" source="gWoKqz0lpScKam20XCxX-187" target="gWoKqz0lpScKam20XCxX-165">
          <mxGeometry relative="1" as="geometry" />
        </mxCell>
        <mxCell id="gWoKqz0lpScKam20XCxX-275" style="edgeStyle=orthogonalEdgeStyle;orthogonalLoop=1;jettySize=auto;html=1;exitX=1;exitY=0.5;exitDx=0;exitDy=0;entryX=0;entryY=0;entryDx=0;entryDy=15;entryPerimeter=0;strokeColor=#E07A5F;fontColor=#393C56;fillColor=#F2CC8F;strokeWidth=3;" edge="1" parent="gWoKqz0lpScKam20XCxX-42" source="gWoKqz0lpScKam20XCxX-187" target="gWoKqz0lpScKam20XCxX-162">
          <mxGeometry relative="1" as="geometry" />
        </mxCell>
        <mxCell id="gWoKqz0lpScKam20XCxX-271" style="edgeStyle=orthogonalEdgeStyle;orthogonalLoop=1;jettySize=auto;html=1;entryX=0;entryY=0;entryDx=0;entryDy=15;entryPerimeter=0;strokeColor=#E07A5F;fontColor=#393C56;fillColor=#F2CC8F;strokeWidth=3;" edge="1" parent="gWoKqz0lpScKam20XCxX-42" source="gWoKqz0lpScKam20XCxX-184" target="gWoKqz0lpScKam20XCxX-159">
          <mxGeometry relative="1" as="geometry">
            <Array as="points">
              <mxPoint x="5319.60088691796" y="3175.974683544304" />
              <mxPoint x="5319.60088691796" y="2438.5759493670885" />
            </Array>
          </mxGeometry>
        </mxCell>
        <mxCell id="gWoKqz0lpScKam20XCxX-277" style="edgeStyle=orthogonalEdgeStyle;orthogonalLoop=1;jettySize=auto;html=1;entryX=0;entryY=0;entryDx=0;entryDy=15;entryPerimeter=0;strokeColor=#E07A5F;fontColor=#393C56;fillColor=#F2CC8F;strokeWidth=3;" edge="1" parent="gWoKqz0lpScKam20XCxX-42" source="gWoKqz0lpScKam20XCxX-261" target="gWoKqz0lpScKam20XCxX-162">
          <mxGeometry relative="1" as="geometry">
            <Array as="points">
              <mxPoint x="6123.281596452328" y="2841.3987341772154" />
              <mxPoint x="6123.281596452328" y="3229.240506329114" />
            </Array>
          </mxGeometry>
        </mxCell>
        <mxCell id="gWoKqz0lpScKam20XCxX-270" style="edgeStyle=orthogonalEdgeStyle;orthogonalLoop=1;jettySize=auto;html=1;entryX=0;entryY=0;entryDx=0;entryDy=15;entryPerimeter=0;strokeColor=#E07A5F;fontColor=#393C56;fillColor=#F2CC8F;exitX=1.005;exitY=0.302;exitDx=0;exitDy=0;exitPerimeter=0;strokeWidth=3;" edge="1" parent="gWoKqz0lpScKam20XCxX-42" source="gWoKqz0lpScKam20XCxX-261" target="gWoKqz0lpScKam20XCxX-164">
          <mxGeometry relative="1" as="geometry" />
        </mxCell>
        <mxCell id="gWoKqz0lpScKam20XCxX-276" style="edgeStyle=orthogonalEdgeStyle;orthogonalLoop=1;jettySize=auto;html=1;entryX=0;entryY=0;entryDx=0;entryDy=15;entryPerimeter=0;strokeColor=#E07A5F;fontColor=#393C56;fillColor=#F2CC8F;strokeWidth=3;" edge="1" parent="gWoKqz0lpScKam20XCxX-42" source="gWoKqz0lpScKam20XCxX-265" target="gWoKqz0lpScKam20XCxX-162">
          <mxGeometry relative="1" as="geometry">
            <Array as="points">
              <mxPoint x="5472.682926829269" y="2491.8417721518986" />
              <mxPoint x="5472.682926829269" y="3229.240506329114" />
            </Array>
          </mxGeometry>
        </mxCell>
        <mxCell id="gWoKqz0lpScKam20XCxX-267" style="edgeStyle=orthogonalEdgeStyle;orthogonalLoop=1;jettySize=auto;html=1;entryX=0;entryY=0;entryDx=0;entryDy=15;entryPerimeter=0;strokeColor=#E07A5F;fontColor=#393C56;fillColor=#F2CC8F;exitX=1.001;exitY=0.296;exitDx=0;exitDy=0;exitPerimeter=0;strokeWidth=3;" edge="1" parent="gWoKqz0lpScKam20XCxX-42" source="gWoKqz0lpScKam20XCxX-265" target="gWoKqz0lpScKam20XCxX-160">
          <mxGeometry relative="1" as="geometry">
            <Array as="points">
              <mxPoint x="5721.441241685145" y="2461.879746835443" />
              <mxPoint x="5721.441241685145" y="2625.006329113924" />
            </Array>
          </mxGeometry>
        </mxCell>
        <mxCell id="gWoKqz0lpScKam20XCxX-266" style="edgeStyle=orthogonalEdgeStyle;orthogonalLoop=1;jettySize=auto;html=1;entryX=0;entryY=0;entryDx=0;entryDy=15;entryPerimeter=0;strokeColor=#E07A5F;fontColor=#393C56;fillColor=#F2CC8F;strokeWidth=3;" edge="1" parent="gWoKqz0lpScKam20XCxX-42" source="gWoKqz0lpScKam20XCxX-262" target="gWoKqz0lpScKam20XCxX-159">
          <mxGeometry relative="1" as="geometry" />
        </mxCell>
        <mxCell id="gWoKqz0lpScKam20XCxX-317" value="&lt;div style=&quot;color: rgb(212, 212, 212); background-color: rgb(30, 30, 30); font-family: Consolas, &amp;quot;Courier New&amp;quot;, monospace; font-size: 14px; line-height: 19px; white-space: pre;&quot;&gt;&lt;div style=&quot;line-height: 19px;&quot;&gt;&lt;div style=&quot;line-height: 19px;&quot;&gt;&lt;div style=&quot;line-height: 19px;&quot;&gt;&lt;div style=&quot;line-height: 19px;&quot;&gt;&lt;div style=&quot;line-height: 19px;&quot;&gt;&lt;span style=&quot;color: #569cd6;&quot;&gt;SELECT FROM&lt;/span&gt; view_name&lt;/div&gt;&lt;/div&gt;&lt;/div&gt;&lt;/div&gt;&lt;/div&gt;&lt;/div&gt;" style="shape=module;align=left;spacingLeft=20;align=center;verticalAlign=top;whiteSpace=wrap;html=1;strokeColor=#E07A5F;fontColor=#393C56;fillColor=#F2CC8F;" vertex="1" parent="gWoKqz0lpScKam20XCxX-42">
          <mxGeometry x="6534.689578713969" y="5057.556582278481" width="478.38137472283813" height="99.87341772151899" as="geometry" />
        </mxCell>
        <mxCell id="gWoKqz0lpScKam20XCxX-335" value="&lt;div style=&quot;color: rgb(212, 212, 212); background-color: rgb(30, 30, 30); font-family: Consolas, &amp;quot;Courier New&amp;quot;, monospace; font-size: 14px; line-height: 19px; white-space: pre;&quot;&gt;&lt;div style=&quot;line-height: 19px;&quot;&gt;&lt;div style=&quot;line-height: 19px;&quot;&gt;&lt;div style=&quot;line-height: 19px;&quot;&gt;&lt;div style=&quot;line-height: 19px;&quot;&gt;&lt;div style=&quot;line-height: 19px;&quot;&gt;&lt;span style=&quot;color: #569cd6;&quot;&gt;SELECT FROM&lt;/span&gt; configuration&lt;/div&gt;&lt;/div&gt;&lt;/div&gt;&lt;/div&gt;&lt;/div&gt;&lt;/div&gt;" style="shape=module;align=left;spacingLeft=20;align=center;verticalAlign=top;whiteSpace=wrap;html=1;strokeColor=#E07A5F;fontColor=#393C56;fillColor=#F2CC8F;" vertex="1" parent="gWoKqz0lpScKam20XCxX-42">
          <mxGeometry x="6456.232394678492" y="4482.000126582278" width="459.2461197339246" height="99.87341772151899" as="geometry" />
        </mxCell>
        <mxCell id="gWoKqz0lpScKam20XCxX-340" value="&lt;div style=&quot;line-height: 100%;&quot;&gt;&lt;font&gt;&amp;nbsp; &amp;nbsp; get_config[&quot;&quot;]&lt;/font&gt;&lt;/div&gt;" style="swimlane;fontStyle=1;align=center;verticalAlign=top;childLayout=stackLayout;horizontal=1;startSize=30;horizontalStack=0;resizeParent=1;resizeParentMax=0;resizeLast=0;collapsible=1;marginBottom=0;whiteSpace=wrap;html=1;fontColor=#2E17FF;fontSize=16;spacingBottom=0;movable=1;resizable=1;rotatable=1;deletable=1;editable=1;locked=0;connectable=1;labelPadding=0;swimlaneFillColor=none;rounded=0;fillColor=#6B6B6B;strokeWidth=3;strokeColor=#2E17FF;" vertex="1" collapsed="1" parent="gWoKqz0lpScKam20XCxX-42">
          <mxGeometry x="4600.004301552106" y="4473.778481012659" width="382.7050997782705" height="49.936708860759495" as="geometry">
            <mxRectangle x="35" y="127.72000000000003" width="250" height="150" as="alternateBounds" />
          </mxGeometry>
        </mxCell>
        <mxCell id="gWoKqz0lpScKam20XCxX-341" value="+ field: type" style="text;strokeColor=none;fillColor=none;align=left;verticalAlign=top;spacingLeft=4;spacingRight=4;overflow=hidden;rotatable=0;points=[[0,0.5],[1,0.5]];portConstraint=eastwest;whiteSpace=wrap;html=1;fontColor=#2E17FF;rounded=0;" vertex="1" parent="gWoKqz0lpScKam20XCxX-340">
          <mxGeometry y="49.936708860759495" width="478.3813747228381" height="43.278481012658226" as="geometry" />
        </mxCell>
        <mxCell id="gWoKqz0lpScKam20XCxX-342" value="" style="line;strokeWidth=1;fillColor=none;align=left;verticalAlign=middle;spacingTop=-1;spacingLeft=3;spacingRight=3;rotatable=0;labelPosition=right;points=[];portConstraint=eastwest;strokeColor=inherit;rounded=0;" vertex="1" parent="gWoKqz0lpScKam20XCxX-340">
          <mxGeometry y="93.21518987341773" width="478.3813747228381" height="13.316455696202532" as="geometry" />
        </mxCell>
        <mxCell id="gWoKqz0lpScKam20XCxX-343" value="+ execute_strategies(type): type&lt;br&gt;&lt;div&gt;&lt;span style=&quot;background-color: initial;&quot;&gt;+ delegate_state_management(type): type&lt;/span&gt;&lt;/div&gt;&lt;div&gt;+ manage_sensor(type): type&lt;div&gt;+ manage_actuator(type): type&lt;br&gt;&lt;/div&gt;&lt;div&gt;+ handle_communication(type): type&lt;/div&gt;&lt;/div&gt;" style="text;strokeColor=none;fillColor=none;align=left;verticalAlign=top;spacingLeft=4;spacingRight=4;overflow=hidden;rotatable=0;points=[[0,0.5],[1,0.5]];portConstraint=eastwest;whiteSpace=wrap;html=1;fontColor=#2E17FF;rounded=0;" vertex="1" parent="gWoKqz0lpScKam20XCxX-340">
          <mxGeometry y="106.53164556962025" width="478.3813747228381" height="143.15189873417722" as="geometry" />
        </mxCell>
        <mxCell id="gWoKqz0lpScKam20XCxX-344" style="edgeStyle=orthogonalEdgeStyle;orthogonalLoop=1;jettySize=auto;html=1;entryX=0;entryY=0;entryDx=0;entryDy=15;entryPerimeter=0;strokeColor=#E07A5F;fontColor=#393C56;fillColor=#F2CC8F;strokeWidth=3;" edge="1" parent="gWoKqz0lpScKam20XCxX-42" source="gWoKqz0lpScKam20XCxX-340" target="gWoKqz0lpScKam20XCxX-335">
          <mxGeometry relative="1" as="geometry" />
        </mxCell>
        <mxCell id="gWoKqz0lpScKam20XCxX-345" style="edgeStyle=orthogonalEdgeStyle;orthogonalLoop=1;jettySize=auto;html=1;entryX=0;entryY=0;entryDx=0;entryDy=15;entryPerimeter=0;strokeColor=#E07A5F;fontColor=#393C56;fillColor=#F2CC8F;strokeWidth=3;" edge="1" parent="gWoKqz0lpScKam20XCxX-42" source="gWoKqz0lpScKam20XCxX-253" target="gWoKqz0lpScKam20XCxX-317">
          <mxGeometry relative="1" as="geometry" />
        </mxCell>
        <mxCell id="gWoKqz0lpScKam20XCxX-346" style="edgeStyle=orthogonalEdgeStyle;orthogonalLoop=1;jettySize=auto;html=1;entryX=0;entryY=0;entryDx=0;entryDy=15;entryPerimeter=0;strokeColor=#E07A5F;fontColor=#393C56;fillColor=#F2CC8F;strokeWidth=3;" edge="1" parent="gWoKqz0lpScKam20XCxX-42" source="gWoKqz0lpScKam20XCxX-309" target="gWoKqz0lpScKam20XCxX-166">
          <mxGeometry relative="1" as="geometry" />
        </mxCell>
        <mxCell id="gWoKqz0lpScKam20XCxX-347" style="edgeStyle=orthogonalEdgeStyle;orthogonalLoop=1;jettySize=auto;html=1;entryX=0;entryY=0;entryDx=0;entryDy=15;entryPerimeter=0;strokeColor=#E07A5F;fontColor=#393C56;fillColor=#F2CC8F;strokeWidth=3;" edge="1" parent="gWoKqz0lpScKam20XCxX-42" source="gWoKqz0lpScKam20XCxX-309" target="gWoKqz0lpScKam20XCxX-167">
          <mxGeometry relative="1" as="geometry" />
        </mxCell>
        <mxCell id="gWoKqz0lpScKam20XCxX-349" style="edgeStyle=orthogonalEdgeStyle;orthogonalLoop=1;jettySize=auto;html=1;entryX=0;entryY=0;entryDx=0;entryDy=15;entryPerimeter=0;strokeColor=#E07A5F;fontColor=#393C56;fillColor=#F2CC8F;strokeWidth=3;" edge="1" parent="gWoKqz0lpScKam20XCxX-42" source="gWoKqz0lpScKam20XCxX-336" target="gWoKqz0lpScKam20XCxX-166">
          <mxGeometry relative="1" as="geometry" />
        </mxCell>
        <mxCell id="gWoKqz0lpScKam20XCxX-350" style="edgeStyle=orthogonalEdgeStyle;orthogonalLoop=1;jettySize=auto;html=1;entryX=0;entryY=0;entryDx=0;entryDy=15;entryPerimeter=0;strokeColor=#E07A5F;fontColor=#393C56;fillColor=#F2CC8F;strokeWidth=4;" edge="1" parent="gWoKqz0lpScKam20XCxX-42" source="gWoKqz0lpScKam20XCxX-336" target="gWoKqz0lpScKam20XCxX-169">
          <mxGeometry relative="1" as="geometry" />
        </mxCell>
        <mxCell id="gWoKqz0lpScKam20XCxX-351" style="edgeStyle=orthogonalEdgeStyle;orthogonalLoop=1;jettySize=auto;html=1;entryX=0;entryY=0;entryDx=0;entryDy=15;entryPerimeter=0;strokeColor=#E07A5F;fontColor=#393C56;fillColor=#F2CC8F;strokeWidth=3;" edge="1" parent="gWoKqz0lpScKam20XCxX-42" source="gWoKqz0lpScKam20XCxX-331" target="gWoKqz0lpScKam20XCxX-166">
          <mxGeometry relative="1" as="geometry" />
        </mxCell>
        <mxCell id="gWoKqz0lpScKam20XCxX-352" style="edgeStyle=orthogonalEdgeStyle;orthogonalLoop=1;jettySize=auto;html=1;entryX=0;entryY=0;entryDx=0;entryDy=15;entryPerimeter=0;strokeColor=#E07A5F;fontColor=#393C56;fillColor=#F2CC8F;strokeWidth=3;" edge="1" parent="gWoKqz0lpScKam20XCxX-42" source="gWoKqz0lpScKam20XCxX-331" target="gWoKqz0lpScKam20XCxX-168">
          <mxGeometry relative="1" as="geometry" />
        </mxCell>
        <mxCell id="gWoKqz0lpScKam20XCxX-354" style="edgeStyle=orthogonalEdgeStyle;orthogonalLoop=1;jettySize=auto;html=1;entryX=0;entryY=0;entryDx=0;entryDy=15;entryPerimeter=0;strokeColor=#E07A5F;fontColor=#393C56;fillColor=#F2CC8F;strokeWidth=3;" edge="1" parent="gWoKqz0lpScKam20XCxX-42" source="gWoKqz0lpScKam20XCxX-180" target="gWoKqz0lpScKam20XCxX-155">
          <mxGeometry relative="1" as="geometry" />
        </mxCell>
        <mxCell id="gWoKqz0lpScKam20XCxX-356" style="edgeStyle=orthogonalEdgeStyle;orthogonalLoop=1;jettySize=auto;html=1;strokeColor=#E07A5F;fontColor=#393C56;fillColor=#F2CC8F;strokeWidth=3;entryX=0;entryY=0;entryDx=0;entryDy=15;entryPerimeter=0;" edge="1" parent="gWoKqz0lpScKam20XCxX-42" source="gWoKqz0lpScKam20XCxX-183" target="gWoKqz0lpScKam20XCxX-157">
          <mxGeometry relative="1" as="geometry">
            <mxPoint x="5911" y="1750" as="sourcePoint" />
            <mxPoint x="6628" y="1630" as="targetPoint" />
            <Array as="points">
              <mxPoint x="6250" y="1763" />
              <mxPoint x="6250" y="1763" />
            </Array>
          </mxGeometry>
        </mxCell>
        <mxCell id="gWoKqz0lpScKam20XCxX-361" style="edgeStyle=orthogonalEdgeStyle;orthogonalLoop=1;jettySize=auto;html=1;exitX=1;exitY=0.75;exitDx=0;exitDy=0;entryX=0;entryY=0;entryDx=0;entryDy=15;entryPerimeter=0;strokeColor=#E07A5F;fontColor=#393C56;fillColor=#F2CC8F;strokeWidth=3;" edge="1" parent="gWoKqz0lpScKam20XCxX-42" source="gWoKqz0lpScKam20XCxX-180" target="gWoKqz0lpScKam20XCxX-158">
          <mxGeometry relative="1" as="geometry" />
        </mxCell>
        <mxCell id="gWoKqz0lpScKam20XCxX-355" style="edgeStyle=orthogonalEdgeStyle;orthogonalLoop=1;jettySize=auto;html=1;strokeColor=#E07A5F;fontColor=#393C56;fillColor=#F2CC8F;strokeWidth=3;exitX=0.993;exitY=0.255;exitDx=0;exitDy=0;exitPerimeter=0;" edge="1" parent="1" source="gWoKqz0lpScKam20XCxX-183">
          <mxGeometry relative="1" as="geometry">
            <mxPoint x="1571" y="-1300" as="sourcePoint" />
            <mxPoint x="2288" y="-1420" as="targetPoint" />
            <Array as="points">
              <mxPoint x="1557" y="-1300" />
              <mxPoint x="1970" y="-1300" />
              <mxPoint x="1970" y="-1420" />
            </Array>
          </mxGeometry>
        </mxCell>
      </root>
    </mxGraphModel>
  </diagram>
</mxfile>
